<svg xmlns="http://www.w3.org/2000/svg" fill="none" viewBox="0 0 24 32" aria-hidden="true"><path fill="currentColor" d="M13 30.933h-2.134V25.5h2.133v5.433ZM11.761 0h.341a6.336 6.336 0 0 1 6.329 6.328v8.477a6.336 6.336 0 0 1-6.328 6.33h-.342a6.336 6.336 0 0 1-6.33-6.33V6.33A6.336 6.336 0 0 1 11.763 0Zm.341 19a4.2 4.2 0 0 0 4.196-4.194V6.329a4.2 4.2 0 0 0-4.196-4.196h-.341A4.2 4.2 0 0 0 7.566 6.33v8.476a4.2 4.2 0 0 0 4.196 4.196h.341Zm-.17 7.567C5.35 26.56.016 21.23 0 14.652v-.002h2.133c0 5.412 4.388 9.8 9.8 9.8 5.411 0 9.799-4.388 9.799-9.8h2.133c-.017 6.58-5.351 11.91-11.932 11.917ZM16 32H7.865v-2.133H16V32Z"/></svg>
