<svg xmlns="http://www.w3.org/2000/svg" viewBox="0 0 826.36 202.89" aria-hidden="true"><defs><linearGradient id="gradient" x1="35.64" x2="39.77" y1="49.11" y2="49.11" gradientTransform="scale(40.42 -40.42) rotate(20.52 165.758 -75.56)" gradientUnits="userSpaceOnUse"><stop offset="0" stop-color="#5e9abd"/><stop offset=".39" stop-color="#7eb5ac"/><stop offset=".77" stop-color="#98cb9e"/><stop offset="1" stop-color="#a2d39a"/></linearGradient><style>.cls-2{fill:none;stroke-miterlimit:10;stroke-width:5.54px;stroke:#1a1a1a;stroke-linecap:round}</style></defs><path d="m422.08 182.56 56.06-162.65M752.61 182.56l56.06-162.65" class="cls-2"/><path d="M118.07 49.33a83.729 83.729 0 0 1 8.03 39.15c1.52-8.61 1.68-17.37.5-25.96a75.473 75.473 0 0 0-8.53-13.2" style="fill:#f27173"/><path d="M118.07 49.33a83.729 83.729 0 0 1 8.03 39.15c1.52-8.61 1.68-17.37.5-25.96a75.473 75.473 0 0 0-8.53-13.2" style="stroke:#f27173;stroke-miterlimit:10;stroke-width:5.54px;fill:none"/><path d="M107.33 138.04a83.483 83.483 0 0 1-25.72 10.32c-11.76 5.95-24.74 8.99-37.79 8.99-4.17 0-8.35-.31-12.5-.94-.91 2.71-1.83 5.43-2.73 8.12 3.67 1.69 7.44 3.07 11.27 4.14.92.03 1.83.04 2.75.04 24.26 0 48.28-10.53 64.73-30.68" style="stroke-miterlimit:10;stroke-width:5.54px;fill:#f26322;stroke:#f26322"/><path d="M132.7 113.88a92.78 92.78 0 0 1-3.18 4.35c-6.34 8.11-13.89 14.74-22.19 19.81-16.45 20.16-40.47 30.68-64.73 30.68-.92 0-1.83-.02-2.75-.04a74.642 74.642 0 0 0 20.05 2.75c10.3 0 20.6-2.14 30.23-6.43 18.33-8.1 32.35-22.83 39.55-41.48 1.22-3.17 2.23-6.38 3.01-9.63" style="fill:url(#gradient)"/><path d="M126.1 88.48c-2.3 13.01-7.74 25.67-16.44 36.8-7.81 9.99-17.44 17.71-28.05 23.08a83.532 83.532 0 0 0 25.72-10.32c.37-.46.74-.92 1.11-1.39 11.23-14.36 17.01-31.24 17.66-48.17" style="fill:#e94e2a"/><path d="M126.6 62.53a83.764 83.764 0 0 1-.5 25.96c-.65 16.92-6.43 33.81-17.66 48.17-.37.47-.73.93-1.11 1.39 8.3-5.08 15.84-11.7 22.19-19.81 1.11-1.43 2.18-2.88 3.18-4.35 3.82-15.87 2.37-32.46-4.36-47.67-.55-1.25-1.13-2.47-1.74-3.68" style="fill:#e6914c"/><path d="M35.1 145.25c-1.24 3.64-2.51 7.4-3.78 11.16 4.15.63 8.33.94 12.5.94 13.04 0 26.02-3.05 37.79-8.99a83.796 83.796 0 0 1-17.93 1.94 83.11 83.11 0 0 1-28.58-5.05" style="fill:#be1e2d"/><path d="M87.89 27.04c.06 1.48.58 3.86 2.7 6.37 2.19 2.64 4.37 3.54 6.37 4.31 2.12.9 4.82 1.99 5.59 5.21 1.93 7.53-4.89 15.31-11.13 21.55 1.18-.31 2.34-.5 3.43-.5 1.18 0 2.29.22 3.26.76 1.48.84 2.51 2.31 2.83 4.12 1.54 9.13 6.88 11 12.03 12.8 3.54 1.16 7.46 2.57 8.3 6.75.84 4.63-3.35 7.59-7.4 10.48-6.88 4.95-11.19 8.75-8.49 16.01.96 2.57-.19 4.24-.71 4.82-1.02 1.1-2.37 1.56-4.18 1.56-2.64 0-6.26-.98-11.26-2.39-1.99-.52-4.12-1.16-5.79-1.54.13.45.26.9.38 1.22 1.03 3.67 2.7 9.2-1.86 11.51-.74.38-1.55.57-2.46.57-4.55 0-11.65-4.96-25.59-17.55l-1.22-1.09c-1.25-1.08-2.45-1.71-3.47-1.71-.13 0-.27.01-.39.03-.77.13-1.41.64-2.06 1.67-.89 1.74-5.91 16.24-11.69 33.26a83.347 83.347 0 0 0 28.58 5.05c6.03 0 12.04-.65 17.93-1.94 10.61-5.36 20.24-13.09 28.05-23.08 8.71-11.14 14.14-23.79 16.44-36.8a83.977 83.977 0 0 0-8.03-39.15c-8-9.91-18.39-17.57-30.18-22.3" style="fill:#ea1a47"/><path d="M87.89 27.04c.06 1.48.58 3.86 2.7 6.37 2.19 2.64 4.37 3.54 6.37 4.31 2.12.9 4.82 1.99 5.59 5.21 1.93 7.53-4.89 15.31-11.13 21.55 2.44-.64 4.82-.77 6.69.26 1.48.84 2.51 2.31 2.83 4.12 1.54 9.13 6.88 11 12.03 12.8 3.54 1.16 7.46 2.57 8.3 6.75.84 4.63-3.35 7.59-7.4 10.48-6.88 4.95-11.19 8.75-8.49 16.01.96 2.57-.19 4.24-.71 4.82-2.51 2.7-7.01 1.54-15.44-.84-1.99-.52-4.12-1.16-5.79-1.54.13.45.26.9.38 1.22 1.03 3.67 2.7 9.2-1.86 11.51-4.44 2.25-11.32-1.87-28.04-16.98L52.7 112c-1.41-1.22-2.77-1.86-3.86-1.67-.77.13-1.41.64-2.06 1.67-1.22 2.38-10.16 28.62-18.2 52.55 19.55 9 41.93 9.2 61.55.45 18.33-8.1 32.35-22.83 39.55-41.48 7.2-18.65 6.75-38.98-1.35-57.31-8.04-18.2-22.64-32.03-40.46-39.17" style="fill:none"/><path d="M134.58 63.44C122.1 35.27 95.22 16.68 64.41 14.95c-1.99-.26-3.54 1.29-3.6 3.15-.13 1.93 1.35 3.54 3.22 3.6 5.92.32 11.71 1.35 17.17 3.02-.32 2.44-.26 7.59 4.12 12.99 3.28 3.99 6.75 5.4 9.07 6.3.64.26 1.48.64 1.61.58 1.22 4.82-7.4 13.19-12.03 17.62-4.76 4.63-7.2 6.95-5.72 9.97 1.8 3.86 6.24 2.06 10.16.52 1.54-.58 4.44-1.74 5.92-1.93 2.51 12.48 11.19 15.5 16.47 17.3 1.35.45 3.41 1.16 3.79 1.35-.32.84-2.96 2.7-4.63 3.92-5.4 3.86-14.02 10.03-11.83 20.84-2.12-.45-5.02-1.29-7.01-1.87-4.05-1.16-7.59-2.12-9.97-2.19-2.44.06-3.41 1.16-3.92 1.86-1.8 2.25-.9 5.27.06 8.49.19.77.58 1.93.77 2.89-2.64-1.16-8.1-5.02-19.55-15.37l-1.22-1.09c-2.96-2.64-6.3-3.86-9.39-3.34-1.99.26-4.76 1.35-6.88 4.89-2.06 3.34-20 57.24-25.4 73.64-.58 1.8.39 3.73 2.12 4.31.39.13.77.19 1.09.19 1.41 0 2.77-.9 3.22-2.38 1.35-4.05 2.83-8.55 4.44-13.19 10.61 4.82 22 7.2 33.38 7.2s22.51-2.32 33.06-7.01c19.94-8.81 35.31-24.89 43.16-45.28 7.91-20.32 7.33-42.51-1.48-62.52Zm-4.89 60.07c-7.2 18.65-21.22 33.38-39.55 41.48-19.62 8.75-42 8.55-61.55-.45 8.04-23.93 16.98-50.17 18.2-52.55.64-1.03 1.29-1.54 2.06-1.67 1.09-.19 2.44.45 3.86 1.67l1.22 1.09c16.72 15.11 23.6 19.23 28.04 16.98 4.57-2.32 2.89-7.85 1.86-11.51-.13-.32-.26-.77-.39-1.22 1.67.39 3.79 1.03 5.79 1.54 8.43 2.38 12.93 3.54 15.44.84.51-.58 1.67-2.25.71-4.82-2.7-7.27 1.61-11.06 8.49-16.01 4.05-2.89 8.23-5.85 7.4-10.48-.84-4.18-4.76-5.6-8.3-6.75-5.14-1.8-10.48-3.67-12.03-12.8-.32-1.8-1.35-3.28-2.83-4.12-1.87-1.03-4.25-.9-6.69-.26 6.24-6.24 13.06-14.02 11.13-21.55-.77-3.22-3.47-4.31-5.6-5.21-1.99-.77-4.18-1.67-6.37-4.31-2.12-2.51-2.64-4.89-2.7-6.37C105.7 34.17 120.3 48 128.34 66.2c8.1 18.33 8.55 38.65 1.35 57.31Z" style="fill:#231f20"/><path d="M548.75 40.81v11.84h-3.01v-5.82h-12.17v5.82h-2.95V40.81c0-6.24 3.62-9.49 9.04-9.49s9.1 3.25 9.1 9.49Zm-3.01 3.41v-3.68c0-4.4-2.35-6.54-6.09-6.54s-6.09 2.14-6.09 6.54v3.68h12.17ZM553.76 44.66c0-4.76 3.53-8.14 8.44-8.14 2.86 0 5.24 1.18 6.51 3.41l-2.2 1.42c-1.03-1.57-2.59-2.29-4.34-2.29-3.13 0-5.49 2.2-5.49 5.61s2.35 5.64 5.49 5.64c1.75 0 3.31-.72 4.34-2.29l2.2 1.39c-1.27 2.23-3.65 3.44-6.51 3.44-4.91 0-8.44-3.41-8.44-8.17ZM571.48 44.66c0-4.76 3.53-8.14 8.44-8.14 2.86 0 5.24 1.18 6.51 3.41l-2.2 1.42c-1.03-1.57-2.59-2.29-4.34-2.29-3.13 0-5.49 2.2-5.49 5.61s2.35 5.64 5.49 5.64c1.75 0 3.31-.72 4.34-2.29l2.2 1.39c-1.27 2.23-3.65 3.44-6.51 3.44-4.91 0-8.44-3.41-8.44-8.17ZM602.49 48.37l1.57 1.87c-1.42 1.69-3.62 2.59-6.27 2.59-5.15 0-8.59-3.41-8.59-8.17s3.38-8.14 8.02-8.14c4.37 0 7.77 3.07 7.87 7.84l-12.69 2.47c.81 2.2 2.8 3.47 5.49 3.47 1.87 0 3.44-.63 4.61-1.93ZM592 44.51v.3l10.22-1.93c-.51-2.29-2.41-3.92-5-3.92-3.04 0-5.21 2.2-5.21 5.54ZM607.85 50.96l1.21-2.29c1.36.96 3.53 1.66 5.61 1.66 2.68 0 3.8-.81 3.8-2.17 0-3.59-10.1-.48-10.1-6.84 0-2.86 2.56-4.79 6.66-4.79 2.08 0 4.43.54 5.82 1.45l-1.24 2.29c-1.45-.93-3.04-1.27-4.61-1.27-2.53 0-3.77.93-3.77 2.2 0 3.77 10.13.69 10.13 6.9 0 2.89-2.65 4.73-6.9 4.73-2.65 0-5.27-.81-6.6-1.87ZM623.71 50.96l1.21-2.29c1.36.96 3.53 1.66 5.61 1.66 2.68 0 3.8-.81 3.8-2.17 0-3.59-10.1-.48-10.1-6.84 0-2.86 2.56-4.79 6.66-4.79 2.08 0 4.43.54 5.82 1.45l-1.24 2.29c-1.45-.93-3.04-1.27-4.61-1.27-2.53 0-3.77.93-3.77 2.2 0 3.77 10.13.69 10.13 6.9 0 2.89-2.65 4.73-6.9 4.73-2.65 0-5.27-.81-6.6-1.87ZM641.07 31.74c0-1.05.84-1.9 1.96-1.9s1.96.81 1.96 1.84c0 1.08-.81 1.93-1.96 1.93s-1.96-.81-1.96-1.87Zm.51 4.94h2.89v15.97h-2.89V36.68ZM667.28 44.66c0 4.88-3.41 8.17-8.08 8.17-2.35 0-4.4-.9-5.7-2.71v2.53h-2.77V30.29h2.89v8.8c1.33-1.72 3.31-2.56 5.58-2.56 4.67 0 8.08 3.25 8.08 8.14Zm-2.92 0c0-3.41-2.32-5.61-5.39-5.61s-5.36 2.2-5.36 5.61 2.32 5.64 5.36 5.64 5.39-2.23 5.39-5.64ZM672.05 47.95V30.29h2.89v17.42c0 1.72.81 2.68 2.47 2.68.54 0 1.08-.15 1.42-.3l.15 2.38c-.66.24-1.39.36-2.08.36-3.1 0-4.85-1.81-4.85-4.88ZM693.99 48.37l1.57 1.87c-1.42 1.69-3.62 2.59-6.27 2.59-5.15 0-8.59-3.41-8.59-8.17s3.38-8.14 8.02-8.14c4.37 0 7.77 3.07 7.87 7.84l-12.69 2.47c.81 2.2 2.8 3.47 5.49 3.47 1.87 0 3.44-.63 4.61-1.93Zm-10.49-3.86v.3l10.22-1.93c-.51-2.29-2.41-3.92-5-3.92-3.04 0-5.21 2.2-5.21 5.54ZM529.07 80.85c0-6.24 4.76-10.79 11.18-10.79 3.25 0 6.09 1.11 8.02 3.28l-1.96 1.9c-1.63-1.72-3.62-2.5-5.94-2.5-4.76 0-8.29 3.44-8.29 8.11s3.53 8.11 8.29 8.11c2.32 0 4.31-.81 5.94-2.53l1.96 1.9c-1.93 2.17-4.76 3.32-8.05 3.32-6.39 0-11.15-4.55-11.15-10.79ZM567.32 75.43V91.4h-2.77v-2.53c-1.3 1.81-3.35 2.71-5.7 2.71-4.67 0-8.08-3.29-8.08-8.17s3.41-8.14 8.08-8.14c2.26 0 4.25.84 5.58 2.56v-2.41h2.89Zm-2.86 7.99c0-3.41-2.32-5.61-5.36-5.61s-5.39 2.2-5.39 5.61 2.32 5.64 5.39 5.64 5.36-2.23 5.36-5.64ZM588.71 82.21v9.19h-2.89v-8.86c0-3.13-1.57-4.67-4.31-4.67-3.07 0-5.06 1.84-5.06 5.3v8.23h-2.89V75.43h2.77v2.41c1.18-1.63 3.22-2.56 5.76-2.56 3.89 0 6.63 2.23 6.63 6.93ZM609.99 75.43V91.4h-2.77v-2.53c-1.3 1.81-3.35 2.71-5.7 2.71-4.67 0-8.08-3.29-8.08-8.17s3.41-8.14 8.08-8.14c2.26 0 4.25.84 5.58 2.56v-2.41h2.89Zm-2.86 7.99c0-3.41-2.32-5.61-5.36-5.61s-5.39 2.2-5.39 5.61 2.32 5.64 5.39 5.64 5.36-2.23 5.36-5.64ZM631.3 69.04V91.4h-2.77v-2.53c-1.3 1.81-3.35 2.71-5.7 2.71-4.67 0-8.08-3.29-8.08-8.17s3.41-8.14 8.08-8.14c2.26 0 4.25.84 5.58 2.56v-8.8h2.89Zm-2.86 14.38c0-3.41-2.32-5.61-5.36-5.61s-5.39 2.2-5.39 5.61 2.32 5.64 5.39 5.64 5.36-2.23 5.36-5.64ZM652.61 75.43V91.4h-2.77v-2.53c-1.3 1.81-3.35 2.71-5.7 2.71-4.67 0-8.08-3.29-8.08-8.17s3.41-8.14 8.08-8.14c2.26 0 4.25.84 5.58 2.56v-2.41h2.89Zm-2.86 7.99c0-3.41-2.32-5.61-5.36-5.61s-5.39 2.2-5.39 5.61 2.32 5.64 5.39 5.64 5.36-2.23 5.36-5.64ZM549.63 118.75v11.39h-5.97v-4.67h-8.23v4.67h-5.88v-11.39c0-6.51 4.07-10.13 10.04-10.13s10.04 3.62 10.04 10.13Zm-5.97 2.11v-2.62c0-3.2-1.69-4.67-4.1-4.67s-4.13 1.48-4.13 4.67v2.62h8.23ZM553.12 121.95c0-4.91 3.89-8.41 9.37-8.41 3.71 0 6.54 1.66 7.66 4.49l-4.43 2.26c-.78-1.54-1.93-2.2-3.25-2.2-1.99 0-3.56 1.39-3.56 3.86s1.57 3.92 3.56 3.92c1.33 0 2.47-.66 3.25-2.2l4.43 2.26c-1.12 2.83-3.95 4.49-7.66 4.49-5.48 0-9.37-3.5-9.37-8.47ZM571.87 121.95c0-4.91 3.89-8.41 9.37-8.41 3.71 0 6.54 1.66 7.66 4.49l-4.43 2.26c-.78-1.54-1.93-2.2-3.25-2.2-1.99 0-3.56 1.39-3.56 3.86s1.57 3.92 3.56 3.92c1.33 0 2.47-.66 3.25-2.2l4.43 2.26c-1.12 2.83-3.95 4.49-7.66 4.49-5.48 0-9.37-3.5-9.37-8.47ZM604.15 124.63l2.98 3.13c-1.54 1.75-3.83 2.65-6.93 2.65-5.82 0-9.58-3.59-9.58-8.47s3.86-8.41 9.04-8.41c4.7 0 8.65 2.98 8.68 8.32l-11.66 2.23c.63 1.33 1.9 1.96 3.71 1.96 1.6 0 2.65-.45 3.77-1.42Zm-7.93-3.47 6.63-1.3c-.39-1.36-1.57-2.26-3.16-2.26-1.96 0-3.29 1.24-3.47 3.56ZM610.45 128.73l1.72-3.92c1.51.93 3.71 1.51 5.7 1.51s2.56-.42 2.56-1.12c0-2.2-9.64.3-9.64-6.24 0-3.07 2.83-5.42 7.96-5.42 2.29 0 4.82.48 6.45 1.39l-1.72 3.89a9.617 9.617 0 0 0-4.7-1.21c-1.93 0-2.62.54-2.62 1.15 0 2.26 9.61-.18 9.61 6.3 0 3.01-2.77 5.36-8.08 5.36-2.77 0-5.64-.69-7.23-1.69ZM627.68 128.73l1.72-3.92c1.51.93 3.71 1.51 5.7 1.51s2.56-.42 2.56-1.12c0-2.2-9.64.3-9.64-6.24 0-3.07 2.83-5.42 7.96-5.42 2.29 0 4.82.48 6.45 1.39l-1.72 3.89a9.617 9.617 0 0 0-4.7-1.21c-1.93 0-2.62.54-2.62 1.15 0 2.26 9.61-.18 9.61 6.3 0 3.01-2.77 5.36-8.08 5.36-2.77 0-5.64-.69-7.23-1.69ZM645.58 108.96c0-1.72 1.39-3.04 3.5-3.04s3.5 1.24 3.5 2.95c0 1.81-1.39 3.13-3.5 3.13s-3.5-1.33-3.5-3.04Zm.63 4.85h5.73v16.33h-5.73v-16.33ZM674.7 121.95c0 5.21-3.59 8.47-8.02 8.47-2.14 0-3.74-.6-4.82-1.9v1.63h-5.46v-22.36h5.73v7.44c1.11-1.15 2.65-1.69 4.55-1.69 4.43 0 8.02 3.22 8.02 8.41Zm-5.79 0c0-2.47-1.51-3.86-3.44-3.86s-3.44 1.39-3.44 3.86 1.51 3.92 3.44 3.92 3.44-1.42 3.44-3.92ZM678.1 124.42v-16.64h5.73v16.33c0 1.24.66 1.87 1.78 1.87.48 0 1-.15 1.3-.3l.24 4.31c-.93.3-1.78.42-2.68.42-3.95 0-6.36-2.08-6.36-6ZM702.15 124.63l2.98 3.13c-1.54 1.75-3.83 2.65-6.93 2.65-5.82 0-9.58-3.59-9.58-8.47s3.86-8.41 9.04-8.41c4.7 0 8.65 2.98 8.68 8.32l-11.66 2.23c.63 1.33 1.9 1.96 3.71 1.96 1.6 0 2.65-.45 3.77-1.42Zm-7.93-3.47 6.63-1.3c-.39-1.36-1.57-2.26-3.16-2.26-1.96 0-3.29 1.24-3.47 3.56ZM562.19 147.8v12.33c0 5.97-3.59 9.19-9.73 9.19-2.83 0-5.06-.81-6.57-2.2-1.51 1.39-3.74 2.2-6.6 2.2-6.12 0-9.73-3.22-9.73-9.19V147.8h5.97v12.15c0 3.04 1.24 4.43 3.68 4.43s3.68-1.39 3.68-4.43V147.8h5.97v12.15c0 3.04 1.27 4.43 3.74 4.43s3.65-1.39 3.65-4.43V147.8h5.97ZM565.72 160.7c0-4.91 3.89-8.41 9.22-8.41s9.22 3.5 9.22 8.41-3.83 8.47-9.22 8.47-9.22-3.53-9.22-8.47Zm12.66 0c0-2.47-1.48-3.86-3.44-3.86s-3.44 1.39-3.44 3.86 1.51 3.92 3.44 3.92 3.44-1.42 3.44-3.92ZM598.51 152.29v5.15c-.51-.06-.87-.09-1.3-.09-2.32 0-3.92 1.17-3.92 4.04v7.5h-5.73v-16.33h5.46v1.96c1.17-1.48 3.07-2.23 5.48-2.23ZM601.61 163.17v-16.64h5.73v16.33c0 1.24.66 1.87 1.78 1.87.48 0 1-.15 1.3-.3l.24 4.31c-.93.3-1.78.42-2.68.42-3.95 0-6.36-2.08-6.36-6ZM630.52 146.53v22.36h-5.45v-1.63c-1.08 1.3-2.68 1.9-4.79 1.9-4.46 0-8.05-3.25-8.05-8.47s3.59-8.41 8.05-8.41c1.9 0 3.44.54 4.52 1.69v-7.44h5.73Zm-5.63 14.16c0-2.47-1.48-3.86-3.41-3.86s-3.44 1.39-3.44 3.86 1.48 3.92 3.44 3.92 3.41-1.42 3.41-3.92ZM222.06 31.55v21.1h-2.89v-2.98c-1.48 2.23-3.86 3.22-6.87 3.22-4.94 0-8.02-3.1-8.02-8.83V31.55h3.01v12.42c0 4.16 2.2 6.24 5.63 6.24 3.65 0 6.15-2.14 6.15-6.69V31.56h2.98ZM243.88 43.46v9.19h-2.89v-8.86c0-3.13-1.57-4.67-4.31-4.67-3.07 0-5.06 1.84-5.06 5.3v8.23h-2.89V36.68h2.77v2.41c1.18-1.63 3.22-2.56 5.76-2.56 3.89 0 6.63 2.23 6.63 6.93ZM257.57 42.1c0-6.24 4.76-10.79 11.18-10.79 3.25 0 6.09 1.11 8.02 3.28l-1.96 1.9c-1.63-1.72-3.62-2.5-5.94-2.5-4.76 0-8.29 3.44-8.29 8.11s3.53 8.11 8.29 8.11c2.32 0 4.31-.81 5.94-2.53l1.96 1.9c-1.93 2.17-4.76 3.32-8.05 3.32-6.39 0-11.15-4.55-11.15-10.79ZM295.81 36.68v15.97h-2.77v-2.53c-1.3 1.81-3.35 2.71-5.7 2.71-4.67 0-8.08-3.29-8.08-8.17s3.41-8.14 8.08-8.14c2.26 0 4.25.84 5.58 2.56v-2.41h2.89Zm-2.86 7.99c0-3.41-2.32-5.61-5.36-5.61s-5.39 2.2-5.39 5.61 2.32 5.64 5.39 5.64 5.36-2.23 5.36-5.64ZM317.21 43.46v9.19h-2.89v-8.86c0-3.13-1.57-4.67-4.31-4.67-3.07 0-5.06 1.84-5.06 5.3v8.23h-2.89V36.68h2.77v2.41c1.18-1.63 3.22-2.56 5.76-2.56 3.89 0 6.63 2.23 6.63 6.93ZM338.49 36.68v15.97h-2.77v-2.53c-1.3 1.81-3.35 2.71-5.7 2.71-4.67 0-8.08-3.29-8.08-8.17s3.41-8.14 8.08-8.14c2.26 0 4.25.84 5.58 2.56v-2.41h2.89Zm-2.86 7.99c0-3.41-2.32-5.61-5.36-5.61s-5.39 2.2-5.39 5.61 2.32 5.64 5.39 5.64 5.36-2.23 5.36-5.64ZM359.79 30.29v22.36h-2.77v-2.53c-1.3 1.81-3.34 2.71-5.7 2.71-4.67 0-8.08-3.29-8.08-8.17s3.41-8.14 8.08-8.14c2.26 0 4.25.84 5.58 2.56v-8.8h2.89Zm-2.86 14.38c0-3.41-2.32-5.61-5.36-5.61s-5.39 2.2-5.39 5.61 2.32 5.64 5.39 5.64 5.36-2.23 5.36-5.64ZM381.1 36.68v15.97h-2.77v-2.53c-1.3 1.81-3.35 2.71-5.7 2.71-4.67 0-8.08-3.29-8.08-8.17s3.41-8.14 8.08-8.14c2.26 0 4.25.84 5.58 2.56v-2.41h2.89Zm-2.86 7.99c0-3.41-2.32-5.61-5.36-5.61s-5.39 2.2-5.39 5.61 2.32 5.64 5.39 5.64 5.36-2.23 5.36-5.64ZM219.11 75.43V91.4h-2.77v-2.53c-1.3 1.81-3.35 2.71-5.7 2.71-4.67 0-8.08-3.29-8.08-8.17s3.41-8.14 8.08-8.14c2.26 0 4.25.84 5.58 2.56v-2.41h2.89Zm-2.86 7.99c0-3.41-2.32-5.61-5.36-5.61s-5.39 2.2-5.39 5.61 2.32 5.64 5.39 5.64 5.36-2.23 5.36-5.64ZM223.87 83.41c0-4.76 3.53-8.14 8.44-8.14 2.86 0 5.24 1.18 6.51 3.41l-2.2 1.42c-1.02-1.57-2.59-2.29-4.34-2.29-3.13 0-5.48 2.2-5.48 5.61s2.35 5.64 5.48 5.64c1.75 0 3.32-.72 4.34-2.29l2.2 1.39c-1.27 2.23-3.65 3.44-6.51 3.44-4.91 0-8.44-3.41-8.44-8.17ZM241.59 83.41c0-4.76 3.53-8.14 8.44-8.14 2.86 0 5.24 1.18 6.51 3.41l-2.2 1.42c-1.02-1.57-2.59-2.29-4.34-2.29-3.13 0-5.48 2.2-5.48 5.61s2.35 5.64 5.48 5.64c1.75 0 3.32-.72 4.34-2.29l2.2 1.39c-1.27 2.23-3.65 3.44-6.51 3.44-4.91 0-8.44-3.41-8.44-8.17ZM272.61 87.12l1.57 1.87c-1.42 1.69-3.62 2.59-6.27 2.59-5.15 0-8.59-3.41-8.59-8.17s3.38-8.14 8.02-8.14c4.37 0 7.78 3.07 7.87 7.84l-12.69 2.47c.81 2.2 2.8 3.47 5.48 3.47 1.87 0 3.44-.63 4.61-1.93Zm-10.49-3.86v.3l10.22-1.93c-.51-2.29-2.41-3.92-5-3.92-3.04 0-5.21 2.2-5.21 5.54ZM277.97 89.71l1.21-2.29c1.36.96 3.53 1.66 5.61 1.66 2.68 0 3.8-.81 3.8-2.17 0-3.59-10.1-.48-10.1-6.84 0-2.86 2.56-4.79 6.66-4.79 2.08 0 4.43.54 5.82 1.45l-1.24 2.29c-1.45-.93-3.04-1.27-4.61-1.27-2.53 0-3.77.93-3.77 2.2 0 3.77 10.13.69 10.13 6.9 0 2.89-2.65 4.73-6.9 4.73-2.65 0-5.27-.81-6.6-1.87ZM293.82 89.71l1.21-2.29c1.36.96 3.53 1.66 5.61 1.66 2.68 0 3.8-.81 3.8-2.17 0-3.59-10.1-.48-10.1-6.84 0-2.86 2.56-4.79 6.66-4.79 2.08 0 4.43.54 5.82 1.45l-1.24 2.29c-1.45-.93-3.04-1.27-4.61-1.27-2.53 0-3.77.93-3.77 2.2 0 3.77 10.12.69 10.12 6.9 0 2.89-2.65 4.73-6.9 4.73-2.65 0-5.27-.81-6.6-1.87ZM311.18 70.48c0-1.05.84-1.9 1.96-1.9s1.96.81 1.96 1.84c0 1.08-.81 1.93-1.96 1.93s-1.96-.81-1.96-1.87Zm.51 4.94h2.89v15.97h-2.89V75.42ZM337.4 83.41c0 4.88-3.41 8.17-8.08 8.17-2.35 0-4.4-.9-5.7-2.71v2.53h-2.77V69.04h2.89v8.8c1.33-1.72 3.32-2.56 5.58-2.56 4.67 0 8.08 3.25 8.08 8.14Zm-2.92 0c0-3.41-2.32-5.61-5.39-5.61s-5.36 2.2-5.36 5.61 2.32 5.64 5.36 5.64 5.39-2.23 5.39-5.64ZM342.16 86.7V69.04h2.89v17.42c0 1.72.81 2.68 2.47 2.68.54 0 1.08-.15 1.42-.3l.15 2.38c-.66.24-1.39.36-2.08.36-3.1 0-4.85-1.81-4.85-4.88ZM364.1 87.12l1.57 1.87c-1.42 1.69-3.62 2.59-6.27 2.59-5.15 0-8.59-3.41-8.59-8.17s3.38-8.14 8.02-8.14c4.37 0 7.78 3.07 7.87 7.84l-12.69 2.47c.81 2.2 2.8 3.47 5.48 3.47 1.87 0 3.44-.63 4.61-1.93Zm-10.49-3.86v.3l10.22-1.93c-.51-2.29-2.41-3.92-5-3.92-3.04 0-5.21 2.2-5.21 5.54ZM223.03 109.05v21.1h-5.79v-2.41c-1.39 1.87-3.5 2.83-6.12 2.83-4.94 0-7.9-3.29-7.9-9.22v-12.3h5.97v12.12c0 3.04 1.51 4.46 3.77 4.46s4.1-1.48 4.1-4.76v-11.81h5.97ZM245.12 120.8v9.34h-5.73v-8.41c0-2.35-1.02-3.34-2.68-3.34-1.84 0-3.25 1.15-3.25 3.86v7.9h-5.73v-16.33h5.46v1.78c1.3-1.36 3.13-2.05 5.18-2.05 3.83 0 6.75 2.2 6.75 7.26ZM286.86 120.8v9.34h-5.73v-8.41c0-2.35-.96-3.34-2.47-3.34-1.66 0-2.86 1.12-2.86 3.65v8.11h-5.73v-8.41c0-2.35-.93-3.34-2.47-3.34-1.69 0-2.89 1.12-2.89 3.65v8.11h-5.73v-16.33h5.45v1.72c1.24-1.33 2.95-1.99 4.88-1.99 2.23 0 4.13.81 5.27 2.56 1.3-1.63 3.31-2.56 5.67-2.56 3.8 0 6.6 2.2 6.6 7.26ZM290.45 121.95c0-4.91 3.89-8.41 9.22-8.41s9.22 3.5 9.22 8.41-3.83 8.47-9.22 8.47-9.22-3.53-9.22-8.47Zm12.66 0c0-2.47-1.48-3.86-3.44-3.86s-3.44 1.39-3.44 3.86 1.51 3.92 3.44 3.92 3.44-1.42 3.44-3.92ZM329.68 120.8v9.34h-5.73v-8.41c0-2.35-1.02-3.34-2.68-3.34-1.84 0-3.25 1.15-3.25 3.86v7.9h-5.73v-16.33h5.45v1.78c1.3-1.36 3.13-2.05 5.18-2.05 3.83 0 6.75 2.2 6.75 7.26ZM351.62 107.78v22.36h-5.45v-1.63c-1.08 1.3-2.68 1.9-4.79 1.9-4.46 0-8.05-3.25-8.05-8.47s3.59-8.41 8.05-8.41c1.9 0 3.44.54 4.52 1.69v-7.44h5.73Zm-5.64 14.16c0-2.47-1.48-3.86-3.41-3.86s-3.44 1.39-3.44 3.86 1.48 3.92 3.44 3.92 3.41-1.42 3.41-3.92ZM368.56 124.63l2.98 3.13c-1.54 1.75-3.83 2.65-6.93 2.65-5.82 0-9.58-3.59-9.58-8.47s3.86-8.41 9.04-8.41c4.7 0 8.65 2.98 8.68 8.32l-11.66 2.23c.63 1.33 1.9 1.96 3.71 1.96 1.6 0 2.65-.45 3.77-1.42Zm-7.93-3.47 6.63-1.3c-.39-1.36-1.57-2.26-3.16-2.26-1.96 0-3.29 1.24-3.47 3.56ZM220.41 152.56v16.33h-5.46v-1.63c-1.08 1.3-2.68 1.9-4.82 1.9-4.43 0-8.02-3.25-8.02-8.47s3.59-8.41 8.02-8.41c1.9 0 3.44.54 4.55 1.69v-1.42h5.73Zm-5.64 8.14c0-2.47-1.51-3.86-3.44-3.86s-3.44 1.39-3.44 3.86 1.51 3.92 3.44 3.92 3.44-1.42 3.44-3.92ZM223.81 160.7c0-4.91 3.89-8.41 9.37-8.41 3.71 0 6.54 1.66 7.65 4.49l-4.43 2.26c-.78-1.54-1.93-2.2-3.25-2.2-1.99 0-3.56 1.39-3.56 3.86s1.57 3.92 3.56 3.92c1.33 0 2.47-.66 3.25-2.2l4.43 2.26c-1.12 2.83-3.95 4.49-7.65 4.49-5.49 0-9.37-3.5-9.37-8.47ZM242.56 160.7c0-4.91 3.89-8.41 9.37-8.41 3.71 0 6.54 1.66 7.66 4.49l-4.43 2.26c-.78-1.54-1.93-2.2-3.25-2.2-1.99 0-3.56 1.39-3.56 3.86s1.57 3.92 3.56 3.92c1.33 0 2.47-.66 3.25-2.2l4.43 2.26c-1.12 2.83-3.95 4.49-7.66 4.49-5.48 0-9.37-3.5-9.37-8.47ZM274.83 163.38l2.98 3.13c-1.54 1.75-3.83 2.65-6.93 2.65-5.82 0-9.58-3.59-9.58-8.47s3.86-8.41 9.04-8.41c4.7 0 8.65 2.98 8.68 8.32l-11.66 2.23c.63 1.33 1.9 1.96 3.71 1.96 1.6 0 2.65-.45 3.77-1.42Zm-7.93-3.47 6.63-1.3c-.39-1.36-1.57-2.26-3.16-2.26-1.96 0-3.29 1.24-3.47 3.56ZM281.13 167.48l1.72-3.92c1.51.93 3.71 1.51 5.7 1.51s2.56-.42 2.56-1.12c0-2.2-9.64.3-9.64-6.24 0-3.07 2.83-5.42 7.96-5.42 2.29 0 4.82.48 6.45 1.39l-1.72 3.89a9.617 9.617 0 0 0-4.7-1.21c-1.93 0-2.62.54-2.62 1.14 0 2.26 9.61-.18 9.61 6.3 0 3.01-2.77 5.36-8.08 5.36-2.77 0-5.64-.69-7.23-1.69ZM298.37 167.48l1.72-3.92c1.51.93 3.71 1.51 5.7 1.51s2.56-.42 2.56-1.12c0-2.2-9.64.3-9.64-6.24 0-3.07 2.83-5.42 7.96-5.42 2.29 0 4.82.48 6.45 1.39l-1.72 3.89a9.617 9.617 0 0 0-4.7-1.21c-1.93 0-2.62.54-2.62 1.14 0 2.26 9.61-.18 9.61 6.3 0 3.01-2.77 5.36-8.08 5.36-2.77 0-5.63-.69-7.23-1.69ZM316.28 147.71c0-1.72 1.39-3.04 3.5-3.04s3.5 1.24 3.5 2.95c0 1.81-1.39 3.13-3.5 3.13s-3.5-1.33-3.5-3.04Zm.63 4.85h5.73v16.33h-5.73v-16.33ZM345.39 160.7c0 5.21-3.59 8.47-8.02 8.47-2.14 0-3.74-.6-4.82-1.9v1.63h-5.46v-22.36h5.73v7.44c1.12-1.15 2.65-1.69 4.55-1.69 4.43 0 8.02 3.22 8.02 8.41Zm-5.79 0c0-2.47-1.51-3.86-3.44-3.86s-3.44 1.39-3.44 3.86 1.51 3.92 3.44 3.92 3.44-1.42 3.44-3.92ZM348.79 163.17v-16.64h5.73v16.33c0 1.24.66 1.87 1.78 1.87.48 0 .99-.15 1.3-.3l.24 4.31c-.93.3-1.78.42-2.68.42-3.95 0-6.36-2.08-6.36-6ZM372.84 163.38l2.98 3.13c-1.54 1.75-3.83 2.65-6.93 2.65-5.82 0-9.58-3.59-9.58-8.47s3.86-8.41 9.04-8.41c4.7 0 8.65 2.98 8.68 8.32l-11.66 2.23c.63 1.33 1.9 1.96 3.71 1.96 1.6 0 2.65-.45 3.77-1.42Zm-7.93-3.47 6.63-1.3c-.39-1.36-1.57-2.26-3.16-2.26-1.96 0-3.29 1.24-3.47 3.56Z"/></svg>
