<svg width="20" height="20" viewBox="0 0 20 20" fill="none" xmlns="http://www.w3.org/2000/svg">
<path d="M1.875 5.625C1.875 4.93464 2.43464 4.375 3.125 4.375H16.875C17.5654 4.375 18.125 4.93464 18.125 5.625V14.375C18.125 15.0654 17.5654 15.625 16.875 15.625H3.125C2.43464 15.625 1.875 15.0654 1.875 14.375V5.625Z" fill="white"/>
<path d="M9.28849 10.7574L8.71928 11.5796H8.71928L9.28849 10.7574ZM10.7115 10.7574L11.2807 11.5796L11.2807 11.5796L10.7115 10.7574ZM3.125 5.375H16.875V3.375H3.125V5.375ZM17.125 5.625V14.375H19.125V5.625H17.125ZM16.875 14.625H3.125V16.625H16.875V14.625ZM2.875 14.375V5.625H0.875V14.375H2.875ZM3.125 14.625C2.98693 14.625 2.875 14.5131 2.875 14.375H0.875C0.875 15.6176 1.88236 16.625 3.125 16.625V14.625ZM17.125 14.375C17.125 14.5131 17.0131 14.625 16.875 14.625V16.625C18.1176 16.625 19.125 15.6176 19.125 14.375H17.125ZM16.875 5.375C17.0131 5.375 17.125 5.48693 17.125 5.625H19.125C19.125 4.38236 18.1176 3.375 16.875 3.375V5.375ZM3.125 3.375C1.88236 3.375 0.875 4.38236 0.875 5.625H2.875C2.875 5.48693 2.98693 5.375 3.125 5.375V3.375ZM1.30579 6.44719L8.71928 11.5796L9.8577 9.93522L2.44421 4.80281L1.30579 6.44719ZM11.2807 11.5796L18.6942 6.44719L17.5558 4.80281L10.1423 9.93522L11.2807 11.5796ZM8.71928 11.5796C9.48978 12.113 10.5102 12.113 11.2807 11.5796L10.1423 9.93522C10.0567 9.99449 9.94331 9.99449 9.8577 9.93522L8.71928 11.5796Z" fill="black"/>
</svg>
