<svg xmlns="http://www.w3.org/2000/svg" fill="none" viewBox="0 0 228 433" role="presentation" aria-label="Accessible Canada — Accessible World / Un canada accessible — Un monde accessible"><g clip-path="url(#a)"><path fill="#F27173" d="M169.863 54.322c9.181 19.327 13.485 40.59 12.676 61.793a132.037 132.037 0 0 0 .79-40.965 117.859 117.859 0 0 0-13.466-20.828Z"/><path stroke="#F27173" stroke-miterlimit="10" stroke-width="4.42" d="M169.863 54.322c9.181 19.327 13.485 40.59 12.676 61.793a132.037 132.037 0 0 0 .79-40.965 117.859 117.859 0 0 0-13.466-20.828Z"/><path fill="#F26322" d="M152.942 194.348a132.038 132.038 0 0 1-40.574 16.302c-18.56 9.387-39.014 14.189-59.588 14.189-6.575 0-13.169-.494-19.704-1.482-1.442 4.288-2.883 8.576-4.305 12.824a117.632 117.632 0 0 0 17.77 6.521c1.441.04 2.883.08 4.344.08 38.264 0 76.133-16.619 102.076-48.434"/><path stroke="#F26322" stroke-miterlimit="10" stroke-width="4.42" d="M152.942 194.348a132.038 132.038 0 0 1-40.574 16.302c-18.56 9.387-39.014 14.189-59.588 14.189-6.575 0-13.169-.494-19.704-1.482-1.442 4.288-2.883 8.576-4.305 12.824a117.632 117.632 0 0 0 17.77 6.521c1.441.04 2.883.08 4.344.08 38.264 0 76.133-16.619 102.076-48.434"/><path fill="url(#b)" d="M192.943 156.209a119.058 119.058 0 0 1-5.015 6.857c-10.01 12.805-21.896 23.259-34.986 31.262-25.944 31.815-63.813 48.434-102.077 48.434-1.441 0-2.883-.02-4.343-.079a117.75 117.75 0 0 0 31.63 4.327 116.98 116.98 0 0 0 47.681-10.157c28.905-12.785 51.019-36.043 62.372-65.467 1.934-5 3.514-10.078 4.738-15.196"/><path fill="#E94E2A" d="M182.539 116.115c-3.633 20.531-12.202 40.509-25.924 58.077-12.32 15.769-27.503 27.961-44.226 36.419a131.264 131.264 0 0 0 40.574-16.303 210.48 210.48 0 0 0 1.757-2.193c17.71-22.666 26.832-49.323 27.859-76.02"/><path fill="#E6914C" d="M183.328 75.15a132.037 132.037 0 0 1-.79 40.965c-1.027 26.716-10.149 53.354-27.859 76.02-.572.731-1.165 1.462-1.757 2.193 13.09-8.003 24.996-18.457 34.986-31.262a133.75 133.75 0 0 0 5.015-6.857c6.022-25.037 3.732-51.24-6.871-75.249a129.366 129.366 0 0 0-2.744-5.81"/><path fill="#BE1E2D" d="M39.02 205.73c-1.955 5.75-3.95 11.679-5.963 17.627 6.535.988 13.13 1.482 19.704 1.482 20.573 0 41.048-4.802 59.588-14.189a131.918 131.918 0 0 1-28.274 3.063A131.38 131.38 0 0 1 39 205.75"/><path fill="#EA1A47" d="M122.28 19.128c.099 2.332.908 6.087 4.265 10.059 3.455 4.17 6.89 5.592 10.049 6.797 3.337 1.423 7.602 3.142 8.826 8.221 3.04 11.876-7.7 24.168-17.553 34.008 1.856-.494 3.693-.79 5.41-.79 1.856 0 3.613.356 5.134 1.205 2.33 1.324 3.949 3.656 4.462 6.502 2.428 14.405 10.859 17.35 18.974 20.195 5.568 1.818 11.767 4.051 13.09 10.651 1.323 7.312-5.272 11.975-11.669 16.54-10.859 7.825-17.651 13.813-13.386 25.274 1.52 4.051-.296 6.699-1.106 7.608-1.599 1.739-3.731 2.45-6.594 2.45-4.166 0-9.872-1.541-17.75-3.774-3.139-.81-6.496-1.818-9.122-2.43.198.711.415 1.422.612 1.936 1.619 5.79 4.265 14.524-2.942 18.18-1.164.593-2.448.909-3.869.909-7.167 0-18.362-7.825-40.357-27.705l-1.935-1.719c-1.975-1.699-3.87-2.687-5.47-2.687-.216 0-.414 0-.631.059-1.224.198-2.231 1.008-3.238 2.648-1.402 2.747-9.32 25.63-18.44 52.505a131.38 131.38 0 0 0 45.075 7.963c9.516 0 18.993-1.027 28.273-3.063 16.743-8.457 31.926-20.67 44.227-36.419 13.722-17.567 22.291-37.546 25.924-58.077.809-21.223-3.495-42.466-12.676-61.792-12.616-15.65-29.004-27.725-47.603-35.194"/><path fill="#231F20" d="M195.904 76.593C176.239 32.13 133.829 2.786 85.259.039c-3.14-.415-5.588 2.036-5.686 4.98-.198 3.043 2.132 5.592 5.074 5.691 9.339.514 18.46 2.134 27.089 4.762-.514 3.854-.415 11.976 6.495 20.512 5.173 6.304 10.642 8.537 14.295 9.94 1.007.415 2.33 1.008 2.527.909 1.935 7.608-11.668 20.808-18.974 27.823-7.502 7.312-11.353 10.967-9.023 15.73 2.843 6.086 9.833 3.24 16.032.81 2.429-.909 6.99-2.747 9.339-3.043 3.949 19.701 17.651 24.464 25.964 27.309 2.132.712 5.37 1.818 5.982 2.134-.513 1.324-4.659 4.269-7.305 6.186-8.51 6.086-22.113 15.828-18.658 32.882-3.357-.712-7.918-2.036-11.057-2.945-6.397-1.818-11.965-3.359-15.716-3.458-3.85.099-5.371 1.818-6.18 2.944-2.843 3.557-1.422 8.32.099 13.398.296 1.225.908 3.043 1.224 4.565-4.166-1.818-12.775-7.924-30.84-24.266l-1.935-1.719c-4.66-4.17-9.931-6.087-14.808-5.277-3.14.415-7.503 2.135-10.86 7.707-3.238 5.276-31.55 90.347-40.06 116.233-.908 2.846.612 5.889 3.356 6.798a5.795 5.795 0 0 0 1.718.296c2.231 0 4.364-1.422 5.074-3.754 2.133-6.403 4.462-13.497 6.99-20.808 16.743 7.608 34.69 11.362 52.637 11.362 17.948 0 35.5-3.656 52.144-11.066 31.452-13.911 55.678-39.284 68.058-71.475 12.478-32.072 11.57-67.108-2.33-98.666l-.02.06Zm-7.7 94.812c-11.353 29.444-33.466 52.683-62.371 65.488-30.94 13.812-66.241 13.496-97.062-.712C41.447 198.418 55.544 157 57.48 153.245c1.007-1.62 2.034-2.431 3.238-2.648 1.718-.296 3.85.711 6.081 2.648l1.935 1.719c26.378 23.851 37.218 30.353 44.227 26.796 7.206-3.656 4.561-12.39 2.942-18.18a22.598 22.598 0 0 1-.612-1.937c2.645.613 5.982 1.621 9.121 2.431 13.288 3.754 20.396 5.592 24.345 1.324.809-.909 2.645-3.557 1.125-7.608-4.265-11.481 2.527-17.469 13.386-25.274 6.398-4.565 12.992-9.248 11.669-16.54-1.323-6.6-7.503-8.833-13.09-10.651-8.115-2.846-16.526-5.79-18.974-20.196-.513-2.845-2.132-5.177-4.462-6.5-2.942-1.621-6.693-1.424-10.544-.416 9.833-9.84 20.593-22.132 17.553-34.008-1.224-5.079-5.469-6.798-8.826-8.22-3.139-1.226-6.594-2.649-10.049-6.799-3.337-3.952-4.166-7.706-4.265-10.058 28.096 11.264 51.117 33.1 63.793 61.832 12.774 28.93 13.485 61.021 2.132 90.445Z"/></g><path fill="#000" d="M6.98 316.84c3.64 0 6.04 2.16 6.04 6.3V331h-2v-3.86H2.94V331H.98v-7.86c0-4.14 2.4-6.3 6-6.3Zm-4.04 8.56h8.08v-2.44c0-2.92-1.56-4.34-4.04-4.34s-4.04 1.42-4.04 4.34v2.44Zm18.496 5.72c-3.26 0-5.6-2.26-5.6-5.42s2.34-5.4 5.6-5.4c1.9 0 3.48.78 4.32 2.26l-1.46.94c-.68-1.04-1.72-1.52-2.88-1.52-2.08 0-3.64 1.46-3.64 3.72 0 2.3 1.56 3.74 3.64 3.74 1.16 0 2.2-.48 2.88-1.52l1.46.92c-.84 1.48-2.42 2.28-4.32 2.28Zm11.27 0c-3.26 0-5.6-2.26-5.6-5.42s2.34-5.4 5.6-5.4c1.9 0 3.48.78 4.32 2.26l-1.46.94c-.68-1.04-1.72-1.52-2.88-1.52-2.08 0-3.64 1.46-3.64 3.72 0 2.3 1.56 3.74 3.64 3.74 1.16 0 2.2-.48 2.88-1.52l1.46.92c-.84 1.48-2.42 2.28-4.32 2.28Zm11.43-1.68c1.24 0 2.28-.42 3.06-1.28l1.04 1.24c-.94 1.12-2.4 1.72-4.16 1.72-3.42 0-5.7-2.26-5.7-5.42 0-3.14 2.24-5.4 5.32-5.4 2.9 0 5.16 2.04 5.22 5.2l-8.42 1.64c.54 1.46 1.86 2.3 3.64 2.3Zm-.44-7.52c-2.02 0-3.46 1.46-3.46 3.68v.2l6.78-1.28c-.34-1.52-1.6-2.6-3.32-2.6Zm10.945 9.2c-1.76 0-3.5-.54-4.38-1.24l.8-1.52c.9.64 2.34 1.1 3.72 1.1 1.78 0 2.52-.54 2.52-1.44 0-2.38-6.7-.32-6.7-4.54 0-1.9 1.7-3.18 4.42-3.18 1.38 0 2.94.36 3.86.96l-.82 1.52c-.96-.62-2.02-.84-3.06-.84-1.68 0-2.5.62-2.5 1.46 0 2.5 6.72.46 6.72 4.58 0 1.92-1.76 3.14-4.58 3.14Zm10.02 0c-1.76 0-3.5-.54-4.38-1.24l.8-1.52c.9.64 2.34 1.1 3.72 1.1 1.78 0 2.52-.54 2.52-1.44 0-2.38-6.7-.32-6.7-4.54 0-1.9 1.7-3.18 4.42-3.18 1.38 0 2.94.36 3.86.96l-.82 1.52c-.96-.62-2.02-.84-3.06-.84-1.68 0-2.5.62-2.5 1.46 0 2.5 6.72.46 6.72 4.58 0 1.92-1.76 3.14-4.58 3.14Zm7.94-12.76c-.74 0-1.3-.54-1.3-1.24s.56-1.26 1.3-1.26 1.3.54 1.3 1.22c0 .72-.54 1.28-1.3 1.28ZM71.64 331v-10.6h1.92V331h-1.92Zm11.205-10.7c3.1 0 5.36 2.16 5.36 5.4s-2.26 5.42-5.36 5.42c-1.56 0-2.92-.6-3.78-1.8V331h-1.84v-14.84h1.92V322c.88-1.14 2.2-1.7 3.7-1.7Zm-.16 9.14c2.04 0 3.58-1.48 3.58-3.74 0-2.26-1.54-3.72-3.58-3.72-2.02 0-3.56 1.46-3.56 3.72 0 2.26 1.54 3.74 3.56 3.74Zm11.393 1.68c-2.06 0-3.22-1.2-3.22-3.24v-11.72h1.92v11.56c0 1.14.54 1.78 1.64 1.78.36 0 .72-.1.94-.2l.1 1.58c-.44.16-.92.24-1.38.24Zm7.791-1.68c1.24 0 2.28-.42 3.06-1.28l1.04 1.24c-.94 1.12-2.4 1.72-4.16 1.72-3.42 0-5.7-2.26-5.7-5.42 0-3.14 2.24-5.4 5.32-5.4 2.9 0 5.16 2.04 5.22 5.2l-8.42 1.64c.54 1.46 1.86 2.3 3.64 2.3Zm-.44-7.52c-2.02 0-3.46 1.46-3.46 3.68v.2l6.78-1.28c-.34-1.52-1.6-2.6-3.32-2.6Zm19.817 9.24c-4.24 0-7.4-3.02-7.4-7.16 0-4.14 3.16-7.16 7.42-7.16 2.16 0 4.04.74 5.32 2.18l-1.3 1.26c-1.08-1.14-2.4-1.66-3.94-1.66-3.16 0-5.5 2.28-5.5 5.38s2.34 5.38 5.5 5.38c1.54 0 2.86-.54 3.94-1.68l1.3 1.26c-1.28 1.44-3.16 2.2-5.34 2.2Zm15.544-10.76h1.92V331h-1.84v-1.68c-.86 1.2-2.22 1.8-3.78 1.8-3.1 0-5.36-2.18-5.36-5.42 0-3.24 2.26-5.4 5.36-5.4 1.5 0 2.82.56 3.7 1.7v-1.6Zm-3.54 9.04c2.02 0 3.56-1.48 3.56-3.74 0-2.26-1.54-3.72-3.56-3.72-2.04 0-3.58 1.46-3.58 3.72 0 2.26 1.54 3.74 3.58 3.74Zm14.752-9.14c2.58 0 4.4 1.48 4.4 4.6v6.1h-1.92v-5.88c0-2.08-1.04-3.1-2.86-3.1-2.04 0-3.36 1.22-3.36 3.52V331h-1.92v-10.6h1.84v1.6c.78-1.08 2.14-1.7 3.82-1.7Zm16.092.1h1.92V331h-1.84v-1.68c-.86 1.2-2.22 1.8-3.78 1.8-3.1 0-5.36-2.18-5.36-5.42 0-3.24 2.26-5.4 5.36-5.4 1.5 0 2.82.56 3.7 1.7v-1.6Zm-3.54 9.04c2.02 0 3.56-1.48 3.56-3.74 0-2.26-1.54-3.72-3.56-3.72-2.04 0-3.58 1.46-3.58 3.72 0 2.26 1.54 3.74 3.58 3.74Zm17.173-13.28h1.92V331h-1.84v-1.68c-.86 1.2-2.22 1.8-3.78 1.8-3.1 0-5.36-2.18-5.36-5.42 0-3.24 2.26-5.4 5.36-5.4 1.5 0 2.82.56 3.7 1.7v-5.84Zm-3.54 13.28c2.02 0 3.56-1.48 3.56-3.74 0-2.26-1.54-3.72-3.56-3.72-2.04 0-3.58 1.46-3.58 3.72 0 2.26 1.54 3.74 3.58 3.74Zm17.173-9.04h1.92V331h-1.84v-1.68c-.86 1.2-2.22 1.8-3.78 1.8-3.1 0-5.36-2.18-5.36-5.42 0-3.24 2.26-5.4 5.36-5.4 1.5 0 2.82.56 3.7 1.7v-1.6Zm-3.54 9.04c2.02 0 3.56-1.48 3.56-3.74 0-2.26-1.54-3.72-3.56-3.72-2.04 0-3.58 1.46-3.58 3.72 0 2.26 1.54 3.74 3.58 3.74ZM6.94 346.72c3.96 0 6.66 2.4 6.66 6.72V361H9.64v-3.1H4.18v3.1H.28v-7.56c0-4.32 2.7-6.72 6.66-6.72Zm-2.76 8.12h5.46v-1.74c0-2.12-1.12-3.1-2.72-3.1-1.62 0-2.74.98-2.74 3.1v1.74Zm17.459 6.34c-3.64 0-6.22-2.32-6.22-5.62 0-3.26 2.58-5.58 6.22-5.58 2.46 0 4.34 1.1 5.08 2.98l-2.94 1.5c-.52-1.02-1.28-1.46-2.16-1.46-1.32 0-2.36.92-2.36 2.56 0 1.68 1.04 2.6 2.36 2.6.88 0 1.64-.44 2.16-1.46l2.94 1.5c-.74 1.88-2.62 2.98-5.08 2.98Zm11.933 0c-3.64 0-6.22-2.32-6.22-5.62 0-3.26 2.58-5.58 6.22-5.58 2.46 0 4.34 1.1 5.08 2.98l-2.94 1.5c-.52-1.02-1.28-1.46-2.16-1.46-1.32 0-2.36.92-2.36 2.56 0 1.68 1.04 2.6 2.36 2.6.88 0 1.64-.44 2.16-1.46l2.94 1.5c-.74 1.88-2.62 2.98-5.08 2.98Zm12.194-2.9c1.06 0 1.76-.3 2.5-.94l1.98 2.08c-1.02 1.16-2.54 1.76-4.6 1.76-3.86 0-6.36-2.38-6.36-5.62 0-3.26 2.56-5.58 6-5.58 3.12 0 5.74 1.98 5.76 5.52l-7.74 1.48c.42.88 1.26 1.3 2.46 1.3Zm-.46-5.6c-1.3 0-2.18.82-2.3 2.36l4.4-.86c-.26-.9-1.04-1.5-2.1-1.5Zm11.432 8.5c-1.84 0-3.74-.46-4.8-1.12l1.14-2.6c1 .62 2.46 1 3.78 1 1.28 0 1.7-.28 1.7-.74 0-1.46-6.4.2-6.4-4.14 0-2.04 1.88-3.6 5.28-3.6 1.52 0 3.2.32 4.28.92l-1.14 2.58c-1.08-.6-2.16-.8-3.12-.8-1.28 0-1.74.36-1.74.76 0 1.5 6.38-.12 6.38 4.18 0 2-1.84 3.56-5.36 3.56Zm10.938 0c-1.84 0-3.74-.46-4.8-1.12l1.14-2.6c1 .62 2.46 1 3.78 1 1.28 0 1.7-.28 1.7-.74 0-1.46-6.4.2-6.4-4.14 0-2.04 1.88-3.6 5.28-3.6 1.52 0 3.2.32 4.28.92l-1.14 2.58c-1.08-.6-2.16-.8-3.12-.8-1.28 0-1.74.36-1.74.76 0 1.5 6.38-.12 6.38 4.18 0 2-1.84 3.56-5.36 3.56Zm8.897-12.22c-1.4 0-2.32-.88-2.32-2.02 0-1.14.92-2.02 2.32-2.02s2.32.82 2.32 1.96c0 1.2-.92 2.08-2.32 2.08Zm-1.9 12.04v-10.84h3.8V361h-3.8Zm13.09-11.02c2.94 0 5.32 2.14 5.32 5.58 0 3.46-2.38 5.62-5.32 5.62-1.42 0-2.48-.4-3.2-1.26V361h-3.62v-14.84h3.8v4.94c.74-.76 1.76-1.12 3.02-1.12Zm-.8 8.18c1.28 0 2.28-.94 2.28-2.6 0-1.64-1-2.56-2.28-2.56-1.28 0-2.28.92-2.28 2.56 0 1.66 1 2.6 2.28 2.6Zm12.106 3.02c-2.62 0-4.22-1.38-4.22-3.98v-11.04h3.8V357c0 .82.44 1.24 1.18 1.24.32 0 .66-.1.86-.2l.16 2.86a5.6 5.6 0 0 1-1.78.28Zm8.748-2.9c1.06 0 1.76-.3 2.5-.94l1.98 2.08c-1.02 1.16-2.54 1.76-4.6 1.76-3.86 0-6.36-2.38-6.36-5.62 0-3.26 2.56-5.58 6-5.58 3.12 0 5.74 1.98 5.76 5.52l-7.74 1.48c.42.88 1.26 1.3 2.46 1.3Zm-.46-5.6c-1.3 0-2.18.82-2.3 2.36l4.4-.86c-.26-.9-1.04-1.5-2.1-1.5Zm31.072-5.68h3.96v8.18c0 3.96-2.38 6.1-6.46 6.1-1.88 0-3.36-.54-4.36-1.46-1 .92-2.48 1.46-4.38 1.46-4.06 0-6.46-2.14-6.46-6.1V347h3.96v8.06c0 2.02.82 2.94 2.44 2.94s2.44-.92 2.44-2.94V347h3.96v8.06c0 2.02.84 2.94 2.48 2.94 1.6 0 2.42-.92 2.42-2.94V347Zm11.919 14.18c-3.54 0-6.12-2.34-6.12-5.62 0-3.26 2.58-5.58 6.12-5.58 3.58 0 6.12 2.32 6.12 5.58 0 3.28-2.54 5.62-6.12 5.62Zm0-3.02c1.3 0 2.28-.94 2.28-2.6 0-1.64-.98-2.56-2.28-2.56-1.28 0-2.28.92-2.28 2.56 0 1.66 1 2.6 2.28 2.6Zm11.5-6.7c.78-.98 2.04-1.48 3.64-1.48v3.42a6.92 6.92 0 0 0-.86-.06c-1.54 0-2.6.78-2.6 2.68V361h-3.8v-10.84h3.62v1.3Zm9.428 9.72c-2.62 0-4.22-1.38-4.22-3.98v-11.04h3.8V357c0 .82.44 1.24 1.18 1.24.32 0 .66-.1.86-.2l.16 2.86a5.6 5.6 0 0 1-1.78.28Zm10.668-15.02h3.8V361h-3.62v-1.08c-.72.86-1.78 1.26-3.18 1.26-2.96 0-5.34-2.16-5.34-5.62 0-3.44 2.38-5.58 5.34-5.58 1.26 0 2.28.36 3 1.12v-4.94Zm-2.2 12c1.28 0 2.26-.94 2.26-2.6 0-1.64-.98-2.56-2.26-2.56-1.3 0-2.28.92-2.28 2.56 0 1.66.98 2.6 2.28 2.6ZM10.8 388h1.98v14h-1.92v-1.98c-.98 1.48-2.56 2.14-4.56 2.14-3.28 0-5.32-2.06-5.32-5.86V388h2v8.24c0 2.76 1.46 4.14 3.74 4.14 2.42 0 4.08-1.42 4.08-4.44V388Zm11.559 3.3c2.58 0 4.4 1.48 4.4 4.6v6.1h-1.92v-5.88c0-2.08-1.04-3.1-2.86-3.1-2.04 0-3.36 1.22-3.36 3.52V402h-1.92v-10.6h1.84v1.6c.78-1.08 2.14-1.7 3.82-1.7Zm19.864 10.86c-4.24 0-7.4-3.02-7.4-7.16 0-4.14 3.16-7.16 7.42-7.16 2.16 0 4.04.74 5.32 2.18l-1.3 1.26c-1.08-1.14-2.4-1.66-3.94-1.66-3.16 0-5.5 2.28-5.5 5.38s2.34 5.38 5.5 5.38c1.54 0 2.86-.54 3.94-1.68l1.3 1.26c-1.28 1.44-3.16 2.2-5.34 2.2Zm15.544-10.76h1.92V402h-1.84v-1.68c-.86 1.2-2.22 1.8-3.78 1.8-3.1 0-5.36-2.18-5.36-5.42 0-3.24 2.26-5.4 5.36-5.4 1.5 0 2.82.56 3.7 1.7v-1.6Zm-3.54 9.04c2.02 0 3.56-1.48 3.56-3.74 0-2.26-1.54-3.72-3.56-3.72-2.04 0-3.58 1.46-3.58 3.72 0 2.26 1.54 3.74 3.58 3.74Zm14.753-9.14c2.58 0 4.4 1.48 4.4 4.6v6.1h-1.92v-5.88c0-2.08-1.04-3.1-2.86-3.1-2.04 0-3.36 1.22-3.36 3.52V402h-1.92v-10.6h1.84v1.6c.78-1.08 2.14-1.7 3.82-1.7Zm16.092.1h1.92V402h-1.84v-1.68c-.86 1.2-2.22 1.8-3.78 1.8-3.1 0-5.36-2.18-5.36-5.42 0-3.24 2.26-5.4 5.36-5.4 1.5 0 2.82.56 3.7 1.7v-1.6Zm-3.54 9.04c2.02 0 3.56-1.48 3.56-3.74 0-2.26-1.54-3.72-3.56-3.72-2.04 0-3.58 1.46-3.58 3.72 0 2.26 1.54 3.74 3.58 3.74Zm17.173-13.28h1.92V402h-1.84v-1.68c-.86 1.2-2.22 1.8-3.78 1.8-3.1 0-5.36-2.18-5.36-5.42 0-3.24 2.26-5.4 5.36-5.4 1.5 0 2.82.56 3.7 1.7v-5.84Zm-3.54 13.28c2.02 0 3.56-1.48 3.56-3.74 0-2.26-1.54-3.72-3.56-3.72-2.04 0-3.58 1.46-3.58 3.72 0 2.26 1.54 3.74 3.58 3.74Zm17.173-9.04h1.92V402h-1.84v-1.68c-.86 1.2-2.22 1.8-3.78 1.8-3.1 0-5.36-2.18-5.36-5.42 0-3.24 2.26-5.4 5.36-5.4 1.5 0 2.82.56 3.7 1.7v-1.6Zm-3.54 9.04c2.02 0 3.56-1.48 3.56-3.74 0-2.26-1.54-3.72-3.56-3.72-2.04 0-3.58 1.46-3.58 3.72 0 2.26 1.54 3.74 3.58 3.74Zm22.543-9.04h1.92V402h-1.84v-1.68c-.86 1.2-2.22 1.8-3.78 1.8-3.1 0-5.36-2.18-5.36-5.42 0-3.24 2.26-5.4 5.36-5.4 1.5 0 2.82.56 3.7 1.7v-1.6Zm-3.54 9.04c2.02 0 3.56-1.48 3.56-3.74 0-2.26-1.54-3.72-3.56-3.72-2.04 0-3.58 1.46-3.58 3.72 0 2.26 1.54 3.74 3.58 3.74Zm13.713 1.68c-3.26 0-5.6-2.26-5.6-5.42s2.34-5.4 5.6-5.4c1.9 0 3.48.78 4.32 2.26l-1.46.94c-.68-1.04-1.72-1.52-2.88-1.52-2.08 0-3.64 1.46-3.64 3.72 0 2.3 1.56 3.74 3.64 3.74 1.16 0 2.2-.48 2.88-1.52l1.46.92c-.84 1.48-2.42 2.28-4.32 2.28Zm11.27 0c-3.26 0-5.6-2.26-5.6-5.42s2.34-5.4 5.6-5.4c1.9 0 3.48.78 4.32 2.26l-1.46.94c-.68-1.04-1.72-1.52-2.88-1.52-2.08 0-3.64 1.46-3.64 3.72 0 2.3 1.56 3.74 3.64 3.74 1.16 0 2.2-.48 2.88-1.52l1.46.92c-.84 1.48-2.42 2.28-4.32 2.28Zm11.429-1.68c1.24 0 2.28-.42 3.06-1.28l1.04 1.24c-.94 1.12-2.4 1.72-4.16 1.72-3.42 0-5.7-2.26-5.7-5.42 0-3.14 2.24-5.4 5.32-5.4 2.9 0 5.16 2.04 5.22 5.2l-8.42 1.64c.54 1.46 1.86 2.3 3.64 2.3Zm-.44-7.52c-2.02 0-3.46 1.46-3.46 3.68v.2l6.78-1.28c-.34-1.52-1.6-2.6-3.32-2.6Zm10.946 9.2c-1.76 0-3.5-.54-4.38-1.24l.8-1.52c.9.64 2.34 1.1 3.72 1.1 1.78 0 2.52-.54 2.52-1.44 0-2.38-6.7-.32-6.7-4.54 0-1.9 1.7-3.18 4.42-3.18 1.38 0 2.94.36 3.86.96l-.82 1.52c-.96-.62-2.02-.84-3.06-.84-1.68 0-2.5.62-2.5 1.46 0 2.5 6.72.46 6.72 4.58 0 1.92-1.76 3.14-4.58 3.14Zm10.02 0c-1.76 0-3.5-.54-4.38-1.24l.8-1.52c.9.64 2.34 1.1 3.72 1.1 1.78 0 2.52-.54 2.52-1.44 0-2.38-6.7-.32-6.7-4.54 0-1.9 1.7-3.18 4.42-3.18 1.38 0 2.94.36 3.86.96l-.82 1.52c-.96-.62-2.02-.84-3.06-.84-1.68 0-2.5.62-2.5 1.46 0 2.5 6.72.46 6.72 4.58 0 1.92-1.76 3.14-4.58 3.14Zm7.939-12.76c-.74 0-1.3-.54-1.3-1.24s.56-1.26 1.3-1.26 1.3.54 1.3 1.22c0 .72-.54 1.28-1.3 1.28Zm-.96 12.64v-10.6h1.92V402h-1.92Zm11.206-10.7c3.1 0 5.36 2.16 5.36 5.4s-2.26 5.42-5.36 5.42c-1.56 0-2.92-.6-3.78-1.8V402h-1.84v-14.84h1.92V393c.88-1.14 2.2-1.7 3.7-1.7Zm-.16 9.14c2.04 0 3.58-1.48 3.58-3.74 0-2.26-1.54-3.72-3.58-3.72-2.02 0-3.56 1.46-3.56 3.72 0 2.26 1.54 3.74 3.56 3.74Zm11.393 1.68c-2.06 0-3.22-1.2-3.22-3.24v-11.72h1.92v11.56c0 1.14.54 1.78 1.64 1.78.36 0 .72-.1.94-.2l.1 1.58c-.44.16-.92.24-1.38.24Zm7.791-1.68c1.24 0 2.28-.42 3.06-1.28l1.04 1.24c-.94 1.12-2.4 1.72-4.16 1.72-3.42 0-5.7-2.26-5.7-5.42 0-3.14 2.24-5.4 5.32-5.4 2.9 0 5.16 2.04 5.22 5.2l-8.42 1.64c.54 1.46 1.86 2.3 3.64 2.3Zm-.44-7.52c-2.02 0-3.46 1.46-3.46 3.68v.2l6.78-1.28c-.34-1.52-1.6-2.6-3.32-2.6ZM9.46 418h3.96v14H9.58v-1.6c-.92 1.24-2.32 1.88-4.06 1.88-3.28 0-5.24-2.18-5.24-6.12V418h3.96v8.04c0 2.02 1 2.96 2.5 2.96 1.54 0 2.72-.98 2.72-3.16V418Zm13.64 2.98c2.54 0 4.48 1.46 4.48 4.82v6.2h-3.8v-5.58c0-1.56-.68-2.22-1.78-2.22-1.22 0-2.16.76-2.16 2.56V432h-3.8v-10.84h3.62v1.18c.86-.9 2.08-1.36 3.44-1.36Zm26.806 0c2.52 0 4.38 1.46 4.38 4.82v6.2h-3.8v-5.58c0-1.56-.64-2.22-1.64-2.22-1.1 0-1.9.74-1.9 2.42V432h-3.8v-5.58c0-1.56-.62-2.22-1.64-2.22-1.12 0-1.92.74-1.92 2.42V432h-3.8v-10.84h3.62v1.14c.82-.88 1.96-1.32 3.24-1.32 1.48 0 2.74.54 3.5 1.7.86-1.08 2.2-1.7 3.76-1.7Zm12.375 11.2c-3.54 0-6.12-2.34-6.12-5.62 0-3.26 2.58-5.58 6.12-5.58 3.58 0 6.12 2.32 6.12 5.58 0 3.28-2.54 5.62-6.12 5.62Zm0-3.02c1.3 0 2.28-.94 2.28-2.6 0-1.64-.98-2.56-2.28-2.56-1.28 0-2.28.92-2.28 2.56 0 1.66 1 2.6 2.28 2.6Zm14.94-8.18c2.54 0 4.48 1.46 4.48 4.82v6.2h-3.8v-5.58c0-1.56-.68-2.22-1.78-2.22-1.22 0-2.16.76-2.16 2.56V432h-3.8v-10.84h3.62v1.18c.86-.9 2.08-1.36 3.44-1.36Zm14.742-3.82h3.8V432h-3.62v-1.08c-.72.86-1.78 1.26-3.18 1.26-2.96 0-5.34-2.16-5.34-5.62 0-3.44 2.38-5.58 5.34-5.58 1.26 0 2.28.36 3 1.12v-4.94Zm-2.2 12c1.28 0 2.26-.94 2.26-2.6 0-1.64-.98-2.56-2.26-2.56-1.3 0-2.28.92-2.28 2.56 0 1.66.98 2.6 2.28 2.6Zm14.245.12c1.06 0 1.76-.3 2.5-.94l1.98 2.08c-1.02 1.16-2.54 1.76-4.6 1.76-3.86 0-6.36-2.38-6.36-5.62 0-3.26 2.56-5.58 6-5.58 3.12 0 5.74 1.98 5.76 5.52l-7.74 1.48c.42.88 1.26 1.3 2.46 1.3Zm-.46-5.6c-1.3 0-2.18.82-2.3 2.36l4.4-.86c-.26-.9-1.04-1.5-2.1-1.5Zm20.973-2.52h3.8V432h-3.62v-1.08c-.72.86-1.78 1.26-3.2 1.26-2.94 0-5.32-2.16-5.32-5.62 0-3.44 2.38-5.58 5.32-5.58 1.26 0 2.28.36 3.02 1.12v-.94Zm-2.22 8c1.28 0 2.28-.94 2.28-2.6 0-1.64-1-2.56-2.28-2.56-1.28 0-2.28.92-2.28 2.56 0 1.66 1 2.6 2.28 2.6Zm14.006 3.02c-3.64 0-6.22-2.32-6.22-5.62 0-3.26 2.58-5.58 6.22-5.58 2.46 0 4.34 1.1 5.08 2.98l-2.94 1.5c-.52-1.02-1.28-1.46-2.16-1.46-1.32 0-2.36.92-2.36 2.56 0 1.68 1.04 2.6 2.36 2.6.88 0 1.64-.44 2.16-1.46l2.94 1.5c-.74 1.88-2.62 2.98-5.08 2.98Zm11.933 0c-3.64 0-6.22-2.32-6.22-5.62 0-3.26 2.58-5.58 6.22-5.58 2.46 0 4.34 1.1 5.08 2.98l-2.94 1.5c-.52-1.02-1.28-1.46-2.16-1.46-1.32 0-2.36.92-2.36 2.56 0 1.68 1.04 2.6 2.36 2.6.88 0 1.64-.44 2.16-1.46l2.94 1.5c-.74 1.88-2.62 2.98-5.08 2.98Zm12.194-2.9c1.06 0 1.76-.3 2.5-.94l1.98 2.08c-1.02 1.16-2.54 1.76-4.6 1.76-3.86 0-6.36-2.38-6.36-5.62 0-3.26 2.56-5.58 6-5.58 3.12 0 5.74 1.98 5.76 5.52l-7.74 1.48c.42.88 1.26 1.3 2.46 1.3Zm-.46-5.6c-1.3 0-2.18.82-2.3 2.36l4.4-.86c-.26-.9-1.04-1.5-2.1-1.5Zm11.432 8.5c-1.84 0-3.74-.46-4.8-1.12l1.14-2.6c1 .62 2.46 1 3.78 1 1.28 0 1.7-.28 1.7-.74 0-1.46-6.4.2-6.4-4.14 0-2.04 1.88-3.6 5.28-3.6 1.52 0 3.2.32 4.28.92l-1.14 2.58c-1.08-.6-2.16-.8-3.12-.8-1.28 0-1.74.36-1.74.76 0 1.5 6.38-.12 6.38 4.18 0 2-1.84 3.56-5.36 3.56Zm10.938 0c-1.84 0-3.74-.46-4.8-1.12l1.14-2.6c1 .62 2.46 1 3.78 1 1.28 0 1.7-.28 1.7-.74 0-1.46-6.4.2-6.4-4.14 0-2.04 1.88-3.6 5.28-3.6 1.52 0 3.2.32 4.28.92l-1.14 2.58c-1.08-.6-2.16-.8-3.12-.8-1.28 0-1.74.36-1.74.76 0 1.5 6.38-.12 6.38 4.18 0 2-1.84 3.56-5.36 3.56Zm8.897-12.22c-1.4 0-2.32-.88-2.32-2.02 0-1.14.92-2.02 2.32-2.02s2.32.82 2.32 1.96c0 1.2-.92 2.08-2.32 2.08Zm-1.9 12.04v-10.84h3.8V432h-3.8Zm13.09-11.02c2.94 0 5.32 2.14 5.32 5.58 0 3.46-2.38 5.62-5.32 5.62-1.42 0-2.48-.4-3.2-1.26V432h-3.62v-14.84h3.8v4.94c.74-.76 1.76-1.12 3.02-1.12Zm-.8 8.18c1.28 0 2.28-.94 2.28-2.6 0-1.64-1-2.56-2.28-2.56-1.28 0-2.28.92-2.28 2.56 0 1.66 1 2.6 2.28 2.6Zm12.106 3.02c-2.62 0-4.22-1.38-4.22-3.98v-11.04h3.8V428c0 .82.44 1.24 1.18 1.24.32 0 .66-.1.86-.2l.16 2.86a5.6 5.6 0 0 1-1.78.28Zm8.748-2.9c1.06 0 1.76-.3 2.5-.94l1.98 2.08c-1.02 1.16-2.54 1.76-4.6 1.76-3.86 0-6.36-2.38-6.36-5.62 0-3.26 2.56-5.58 6-5.58 3.12 0 5.74 1.98 5.76 5.52l-7.74 1.48c.42.88 1.26 1.3 2.46 1.3Zm-.46-5.6c-1.3 0-2.18.82-2.3 2.36l4.4-.86c-.26-.9-1.04-1.5-2.1-1.5Z"/><defs><linearGradient id="b" x1="-2.527" x2="244.172" y1="257.502" y2="165.245" gradientUnits="userSpaceOnUse"><stop stop-color="#5E9ABD"/><stop offset=".39" stop-color="#7EB5AC"/><stop offset=".77" stop-color="#98CB9E"/><stop offset="1" stop-color="#A2D39A"/></linearGradient><clipPath id="a"><path fill="#fff" d="M8 0h199v271H8z"/></clipPath></defs></svg>
