<svg xmlns="http://www.w3.org/2000/svg" fill="none" viewBox="0 0 32 38" aria-hidden="true"><path fill="currentColor" d="M5.429 0h17.78l6.876 6.876v22.823H5.43V0Zm16.96 1.98H7.409v25.739h20.696V7.697L22.39 1.98Zm7.696 7.563h-9.543V0h2.668l6.875 6.876v2.667Zm-7.563-1.98h5.45l-5.45-5.45v5.45Z"/><path fill="#fff" stroke="#000" stroke-width="2.171" d="M1.086 12.486h18.457v11.943H1.086z"/><path fill="#000" d="M7.343 17.779c0 .341-.052.637-.156.886a1.758 1.758 0 0 1-.417.616 1.74 1.74 0 0 1-.591.365c-.22.075-.443.113-.669.113h-.6V22H3.548v-6.15h1.911c.22 0 .44.032.66.096.226.064.429.17.608.321.185.145.333.342.443.591.116.249.174.556.174.92Zm-1.303.026c0-.278-.067-.478-.2-.6a.695.695 0 0 0-.486-.182H4.91v1.607h.443c.19 0 .353-.07.486-.208.133-.145.2-.35.2-.617Zm6.327 1.138c0 .463-.052.883-.156 1.26a2.62 2.62 0 0 1-.46.963 2.065 2.065 0 0 1-.8.617c-.318.145-.697.217-1.137.217H8.085v-6.15h1.729c.44 0 .819.073 1.137.218.325.144.591.353.8.625.208.266.361.59.46.973.104.376.156.802.156 1.277Zm-1.398 0c0-.62-.107-1.086-.322-1.399-.208-.318-.48-.477-.816-.477h-.339v3.717h.339c.336 0 .608-.156.816-.469.215-.319.322-.776.322-1.372Zm3.638-1.833v1.25h1.468v1.19h-1.46V22h-1.407v-6.15h2.997v1.26h-1.598Z"/></svg>
