<svg xmlns="http://www.w3.org/2000/svg" fill="none" viewBox="0 0 28 28" aria-hidden="true"><path fill="currentColor" d="m9.374 14.504-1.722-1.721 5.113-5.113 2.42 2.298 3.417-3.538 1.752 1.691-5.094 5.275-2.45-2.327-3.436 3.435ZM28 2.434H0V0h28v2.435ZM1.096 0h25.808v19.965H1.096V0ZM24.47 2.435H3.53V17.53h20.94V2.435ZM28 19.843H0V17.41h28v2.434Zm-12.783 3.53h-2.434V17.41h2.434v5.965ZM14 20.94A3.53 3.53 0 1 1 14 28a3.53 3.53 0 0 1 0-7.06Zm0 4.626a1.096 1.096 0 1 0 0-2.191 1.096 1.096 0 0 0 0 2.191Z"/></svg>
