<svg xmlns="http://www.w3.org/2000/svg" fill="none" viewBox="0 0 25 25" aria-hidden="true"><path fill="currentColor" d="M15.609 20.848H5.239v-2.174h10.37v2.174Zm0-4.152H5.239v-2.174h10.37v2.174Zm0-4.142H5.239V10.38h10.37v2.174ZM21.837 25H3.152A3.185 3.185 0 0 1 0 21.85V6.227h20.848v15.605c.005.547.448.988.994.993L21.837 25Zm-18.67-2.174h15.67c-.1-.291-.16-.628-.162-.977V8.402H2.174v13.43c.005.547.447.989.993.994ZM4.152 0h11.913l2.033 2.076H25v19.761a3.163 3.163 0 1 1-6.326 0V8.402H4.152V0Zm11 2.174H6.326v4.054h14.522v15.609a.99.99 0 0 0 1.978 0V4.25h-5.641l-2.033-2.076Z"/></svg>
