<svg xmlns="http://www.w3.org/2000/svg" fill="none" viewBox="0 0 27 23" aria-hidden="true"><path fill="currentColor" d="M5.658 0h15.684A5.664 5.664 0 0 1 27 5.658v11.2a5.664 5.664 0 0 1-5.658 5.658H5.658A5.664 5.664 0 0 1 0 16.858v-11.2A5.664 5.664 0 0 1 5.658 0Zm15.684 20.168a3.314 3.314 0 0 0 3.31-3.31v-11.2a3.314 3.314 0 0 0-3.31-3.31H5.658a3.314 3.314 0 0 0-3.31 3.31v11.2a3.314 3.314 0 0 0 3.31 3.31h15.684ZM7.842 4.874l12.767 6.384-12.767 6.384V4.874Zm7.518 6.384-5.17-2.583v5.165l5.17-2.582Z"/></svg>
