<svg viewBox="0 0 123.31 102.8" xmlns="http://www.w3.org/2000/svg" xmlns:xlink="http://www.w3.org/1999/xlink"><clipPath id="a"><path d="m0 0h123.31v102.8h-123.31z"/></clipPath><g fill="#231f20"><path d="m51.26 75.45h24.06v23.9h-24.06zm-47.88-47.85h44.51v44.39h-44.51zm47.88-24.14h68.59v68.54h-68.59zm-3.37-3.46v24.15h-47.89v51.3h47.89v27.35h30.81v-27.35h44.61v-75.45z"/><g clip-path="url(#a)"><path d="m16.22 46.42c-.95 0-1.82-.16-2.63-.5-.81-.33-1.5-.79-2.09-1.36s-1.04-1.24-1.38-2.02c-.33-.77-.5-1.59-.5-2.47v-.03c0-.88.17-1.7.5-2.48.33-.77.8-1.46 1.39-2.03.59-.58 1.3-1.03 2.1-1.37.81-.33 1.68-.5 2.63-.5s1.82.17 2.63.5c.8.33 1.5.79 2.08 1.36s1.04 1.24 1.38 2.01c.33.77.5 1.6.5 2.47v.04c0 .88-.17 1.7-.5 2.48s-.8 1.46-1.39 2.03c-.6.58-1.3 1.04-2.1 1.37s-1.68.5-2.63.5m.04-3.07c.47 0 .89-.09 1.28-.26.39-.18.72-.41.99-.71s.48-.64.63-1.04.23-.82.23-1.26v-.03c0-.44-.08-.86-.23-1.26s-.37-.75-.65-1.05-.62-.55-1-.73-.81-.27-1.28-.27-.89.09-1.28.26c-.38.17-.71.41-.98.71-.28.3-.49.64-.63 1.04-.15.4-.22.82-.22 1.26v.04c0 .44.08.86.23 1.26s.37.75.64 1.05c.28.3.61.55.99.73.39.18.82.27 1.28.27"/><path d="m35.59 46.42c-.88 0-1.7-.16-2.47-.47-.77-.32-1.44-.76-2.01-1.32-.57-.57-1.02-1.24-1.35-2.02s-.5-1.62-.5-2.53v-.03c0-.89.17-1.72.49-2.5.33-.78.78-1.45 1.35-2.03s1.25-1.03 2.04-1.36 1.65-.49 2.59-.49c.63 0 1.2.06 1.72.18.51.12.99.3 1.41.53.43.23.81.5 1.16.81.34.32.65.66.92 1.03l-2.56 1.98c-.35-.45-.74-.8-1.15-1.05-.42-.25-.93-.39-1.53-.39-.43 0-.83.08-1.18.25-.36.17-.67.4-.92.69-.26.29-.46.63-.61 1.03-.14.4-.22.82-.22 1.26v.04c0 .45.08.88.22 1.29.15.4.35.75.61 1.04s.56.53.92.69c.35.17.75.25 1.18.25.31 0 .6-.03.87-.1.26-.07.5-.17.72-.31.22-.13.42-.29.62-.47.19-.18.38-.38.57-.6l2.56 1.83c-.29.4-.61.76-.96 1.1s-.74.63-1.17.87c-.44.25-.93.44-1.47.58s-1.15.21-1.83.21"/><path d="m29.88 53.11h4.73c1.1 0 2.08.15 2.94.45s1.58.72 2.17 1.25c.59.54 1.04 1.18 1.35 1.92s.46 1.56.46 2.45v.03c0 .89-.16 1.71-.47 2.46-.32.75-.77 1.4-1.37 1.95s-1.33.98-2.2 1.29-1.85.46-2.95.46h-4.66v-12.27zm4.79 9.26c1.02 0 1.84-.27 2.46-.81.62-.53.93-1.3.93-2.29v-.04c0-.98-.31-1.74-.93-2.29-.62-.54-1.44-.82-2.46-.82h-1.39v6.24h1.39z"/><path d="m63.26 93.56c-.83 0-1.57-.1-2.24-.32-.66-.21-1.23-.53-1.69-.97-.46-.43-.82-.99-1.07-1.66s-.37-1.46-.37-2.36v-6.51h3.28v6.44c0 .84.19 1.46.58 1.86.38.4.9.61 1.55.61s1.16-.19 1.54-.58.58-.99.58-1.8v-6.53h3.28v6.43c0 .94-.13 1.75-.39 2.42-.26.68-.62 1.24-1.09 1.67s-1.04.76-1.71.97-1.42.32-2.24.32"/><path d="m60.64 15.85c-.45 0-.88-.08-1.26-.24-.39-.16-.72-.38-1-.65s-.5-.6-.66-.97-.24-.77-.24-1.19v-.02c0-.42.08-.82.24-1.19s.38-.7.67-.98.62-.5 1.01-.66.81-.24 1.26-.24.88.08 1.26.24c.39.16.72.38 1 .65s.5.6.66.97.24.77.24 1.19v.02c0 .42-.08.82-.24 1.19s-.38.7-.67.98-.62.5-1.01.66-.81.24-1.26.24m.01-1.47c.22 0 .43-.04.62-.13.19-.08.34-.2.47-.34s.23-.31.3-.5.11-.39.11-.61v-.02c0-.21-.04-.42-.11-.61s-.18-.36-.31-.51-.3-.26-.48-.35c-.19-.09-.39-.13-.62-.13s-.43.04-.61.13c-.18.08-.34.2-.47.34s-.23.31-.3.5-.1.39-.1.61v.02c0 .21.04.42.11.61s.18.36.31.51.29.26.48.35c.18.09.39.13.62.13"/><path d="m67.85 15.85c-.42 0-.82-.08-1.19-.23s-.69-.36-.96-.64c-.27-.27-.49-.59-.65-.97-.16-.37-.24-.78-.24-1.22v-.02c0-.43.08-.83.23-1.2.16-.37.37-.7.65-.98.27-.28.6-.49.98-.65s.79-.23 1.24-.23c.3 0 .58.03.83.09s.47.14.68.25.39.24.56.39c.16.15.31.32.44.5l-1.23.95c-.17-.21-.35-.38-.55-.51-.2-.12-.45-.18-.73-.18-.21 0-.4.04-.57.12s-.32.19-.44.33-.22.31-.29.5-.1.39-.1.61v.02c0 .22.03.42.1.62.07.19.17.36.29.5s.27.25.44.33.36.12.57.12c.15 0 .29-.02.42-.05s.24-.08.35-.15c.1-.07.2-.14.29-.23s.18-.18.27-.29l1.23.88c-.14.19-.29.37-.46.53s-.35.3-.56.42-.45.21-.71.28-.55.1-.88.1"/><path d="m73.49 9.81h1.57l2.51 5.93h-1.75l-.43-1.05h-2.27l-.42 1.05h-1.72zm1.43 3.61-.66-1.67-.66 1.67z"/><path d="m78.5 9.85h2.27c.53 0 1 .07 1.41.21s.76.34 1.04.6.5.57.65.92c.15.36.22.75.22 1.17v.02c0 .43-.08.82-.23 1.18s-.37.67-.66.94c-.29.26-.64.47-1.06.62s-.89.22-1.42.22h-2.24v-5.89zm2.3 4.44c.49 0 .88-.13 1.18-.39s.45-.62.45-1.1v-.02c0-.47-.15-.84-.45-1.1s-.69-.39-1.18-.39h-.67v2.99h.67z"/><path d="m60.33 25.15c-.42 0-.8-.05-1.14-.16s-.62-.27-.86-.49c-.23-.22-.42-.5-.54-.84-.13-.34-.19-.74-.19-1.2v-3.31h1.67v3.27c0 .43.1.74.29.95.2.2.46.31.79.31s.59-.1.78-.29c.19-.2.29-.5.29-.92v-3.32h1.67v3.27c0 .48-.07.89-.2 1.23-.13.35-.32.63-.55.85-.24.22-.53.39-.87.49-.34.11-.72.16-1.14.16"/><path d="m64.57 19.15h1.52l2.43 3.11v-3.11h1.61v5.89h-1.44l-2.52-3.23v3.23h-1.6z"/><path d="m71.68 19.15h1.64v5.89h-1.64z"/><path d="m74.26 19.15h1.83l1.34 3.72 1.33-3.72h1.8l-2.39 5.93h-1.52z"/><path d="m81.48 19.15h4.72v1.38h-3.12v.9h2.83v1.28h-2.83v.94h3.17v1.39h-4.77z"/><path d="m87.62 19.15h2.78c.45 0 .84.06 1.15.17s.57.27.77.47c.35.34.52.79.52 1.37v.02c0 .45-.11.83-.33 1.13s-.51.53-.88.68l1.4 2.05h-1.88l-1.19-1.78h-.72v1.78h-1.63v-5.89zm2.71 2.82c.28 0 .5-.06.65-.19s.23-.3.23-.51v-.02c0-.24-.08-.41-.24-.53-.16-.11-.37-.17-.65-.17h-1.07v1.41h1.08z"/><path d="m96.42 25.14c-.53 0-1.03-.08-1.5-.25-.47-.16-.89-.41-1.26-.74l.91-1.09c.59.47 1.23.71 1.91.71.22 0 .39-.04.5-.11.12-.07.17-.17.17-.3v-.02c0-.06-.01-.12-.04-.16-.03-.05-.08-.09-.16-.14-.08-.04-.18-.09-.3-.13-.13-.04-.29-.09-.49-.13-.31-.07-.61-.15-.88-.24s-.5-.2-.7-.34-.36-.31-.47-.51c-.12-.21-.17-.46-.17-.76v-.02c0-.27.05-.53.16-.76.1-.23.26-.43.45-.6.2-.17.44-.3.72-.39s.6-.14.95-.14c.51 0 .96.07 1.35.2.4.13.75.33 1.07.59l-.82 1.16c-.27-.19-.55-.34-.83-.43-.28-.1-.56-.15-.82-.15-.2 0-.34.04-.44.11s-.15.16-.15.27v.02c0 .07.02.13.05.18s.08.1.16.14.18.08.31.13c.13.04.3.09.5.13.34.07.64.16.91.26s.5.22.69.36.34.31.44.51.15.44.15.71v.02c0 .3-.06.57-.17.81s-.28.44-.48.6c-.21.16-.46.29-.75.38s-.62.13-.98.13"/><path d="m100.07 19.15h1.64v5.89h-1.64z"/><path d="m104.49 20.58h-1.77v-1.43h5.17v1.43h-1.77v4.46h-1.63z"/><path d="m110.85 22.83-2.23-3.68h1.85l1.22 2.14 1.22-2.14h1.82l-2.24 3.66v2.23h-1.64z"/><path d="m17.88 53.07h-3.28l-5.23 12.36h3.58l.79-1.97h4.91l.8 1.97h3.65zm-3.15 7.76 1.48-3.71 1.47 3.71z"/></g></g></svg>