<svg xmlns="http://www.w3.org/2000/svg" viewBox="0 0 512 512"><path fill="#f27173" d="M373.818 102.623a249.721 249.721 0 0 1 23.95 116.765 249.825 249.825 0 0 0 1.49-77.426 225.1 225.1 0 0 0-25.44-39.369"/><path fill="none" stroke="#f27173" stroke-width="16.523" d="M373.818 102.623a249.721 249.721 0 0 1 23.95 116.765 249.825 249.825 0 0 0 1.49-77.426 225.1 225.1 0 0 0-25.44-39.369"/><path fill="#f26322" stroke="#f26322" stroke-width="16.523" d="M341.786 367.2a248.988 248.988 0 0 1-76.71 30.78c-35.073 17.745-73.786 26.812-112.708 26.812a248.43 248.43 0 0 1-37.28-2.804c-2.715 8.083-5.459 16.195-8.143 24.218a225.278 225.278 0 0 0 33.613 12.348c2.744.09 5.458.12 8.202.12 72.355 0 143.994-31.407 193.056-91.504"/><linearGradient id="a" x1="45.17" x2="511.46" y1="487.271" y2="312.747" gradientUnits="userSpaceOnUse"><stop offset="0" stop-color="#5e9abd"/><stop offset=".39" stop-color="#7eb5ac"/><stop offset=".77" stop-color="#98cb9e"/><stop offset="1" stop-color="#a2d39a"/></linearGradient><path fill="url(#a)" d="M417.452 295.143a276.706 276.706 0 0 1-9.484 12.974c-18.91 24.188-41.427 43.962-66.182 59.083-49.062 60.127-120.701 91.503-193.056 91.503-2.744 0-5.458-.06-8.202-.12a222.619 222.619 0 0 0 59.799 8.202c30.72 0 61.44-6.382 90.16-19.177 54.67-24.158 96.484-68.09 117.958-123.714 3.639-9.454 6.651-19.028 8.977-28.721"/><path fill="#e94e2a" d="M397.768 219.388c-6.86 38.802-23.085 76.56-49.032 109.755-23.294 29.796-52.015 52.82-83.66 68.836a249.132 249.132 0 0 0 76.71-30.779 504.383 504.383 0 0 0 3.31-4.146c33.494-42.828 50.733-93.173 52.672-143.666"/><path fill="#e6914c" d="M399.259 141.992a249.826 249.826 0 0 1-1.491 77.426c-1.939 50.463-19.178 100.838-52.671 143.666-1.104 1.402-2.177 2.774-3.31 4.146 24.754-15.151 47.242-34.895 66.18-59.083 3.311-4.265 6.503-8.59 9.485-12.974 11.393-47.332 7.069-96.812-13.004-142.175a230.964 230.964 0 0 0-5.19-10.976"/><path fill="#be1e2d" d="M126.361 388.704c-3.698 10.856-7.486 22.07-11.274 33.284a248.43 248.43 0 0 0 37.281 2.804c38.892 0 77.605-9.097 112.709-26.813a249.92 249.92 0 0 1-53.476 5.786 247.876 247.876 0 0 1-85.24-15.061"/><path fill="#ea1a47" d="M283.807 36.144c.179 4.414 1.73 11.512 8.052 18.998 6.532 7.874 13.034 10.558 18.999 12.855 6.323 2.684 14.376 5.935 16.672 15.538 5.756 22.459-14.584 45.662-33.195 64.273 3.52-.925 6.979-1.491 10.23-1.491 3.52 0 6.83.656 9.723 2.266 4.414 2.506 7.486 6.89 8.44 12.288 4.593 27.23 20.52 32.808 35.88 38.176 10.558 3.46 22.249 7.665 24.754 20.132 2.506 13.809-9.991 22.637-22.07 31.257-20.52 14.763-33.374 26.096-25.322 47.75 2.864 7.664-.566 12.645-2.117 14.375-3.042 3.28-7.069 4.653-12.467 4.653-7.874 0-18.67-2.923-33.583-7.129-5.935-1.55-12.288-3.46-17.268-4.593.387 1.342.775 2.685 1.133 3.639 3.072 10.946 8.053 27.439-5.547 34.328-2.207 1.134-4.623 1.7-7.337 1.7-13.57 0-34.746-14.793-76.322-52.342l-3.639-3.251c-3.728-3.221-7.307-5.1-10.35-5.1-.387 0-.804.03-1.162.09-2.297.387-4.206 1.908-6.144 4.98-2.655 5.19-17.627 48.436-34.866 99.198a248.581 248.581 0 0 0 85.24 15.061c17.984 0 35.91-1.938 53.476-5.786 31.644-15.986 60.366-39.04 83.659-68.836 25.977-33.225 42.172-70.953 49.032-109.755a250.461 250.461 0 0 0-23.95-116.765c-23.86-29.556-54.847-52.402-90.01-66.51"/><path fill="none" d="M283.807 36.144c.179 4.414 1.73 11.512 8.052 18.998 6.532 7.874 13.034 10.558 18.999 12.855 6.323 2.684 14.376 5.935 16.672 15.538 5.756 22.459-14.584 45.662-33.195 64.273 7.277-1.909 14.376-2.296 19.953.775 4.414 2.506 7.486 6.89 8.44 12.288 4.593 27.23 20.52 32.808 35.88 38.176 10.558 3.46 22.249 7.665 24.754 20.132 2.506 13.809-9.991 22.637-22.07 31.257-20.52 14.763-33.374 26.096-25.322 47.75 2.864 7.664-.566 12.645-2.117 14.375-7.486 8.053-20.907 4.593-46.05-2.505-5.935-1.551-12.288-3.46-17.268-4.593.387 1.342.775 2.684 1.133 3.638 3.072 10.946 8.053 27.44-5.547 34.329-13.243 6.71-33.762-5.578-83.63-50.643l-3.638-3.251c-4.205-3.639-8.262-5.547-11.513-4.98-2.296.387-4.205 1.908-6.143 4.98-3.64 7.098-30.303 85.359-54.282 156.73 58.308 26.842 125.056 27.439 183.572 1.342 54.67-24.158 96.484-68.09 117.958-123.714 21.474-55.623 20.132-116.257-4.026-170.926-23.98-54.282-67.524-95.53-120.672-116.824"/><path fill="#231f20" d="M423.06 144.706C385.837 60.69 305.667 5.245 213.777.086 207.843-.69 203.22 3.932 203.04 9.48c-.388 5.756 4.026 10.558 9.603 10.737 17.657.955 34.925 4.026 51.21 9.007-.955 7.278-.776 22.637 12.288 38.743 9.782 11.9 20.132 16.105 27.05 18.79 1.91.775 4.415 1.908 4.803 1.73 3.638 14.375-22.07 39.338-35.88 52.55-14.196 13.81-21.474 20.73-17.06 29.736 5.369 11.513 18.611 6.144 30.303 1.551 4.593-1.73 13.242-5.19 17.656-5.756 7.486 37.221 33.374 46.229 49.122 51.597 4.026 1.342 10.17 3.46 11.303 4.026-.954 2.506-8.828 8.053-13.809 11.692-16.105 11.512-41.814 29.914-35.283 62.155-6.322-1.342-14.972-3.848-20.907-5.577-12.079-3.46-22.637-6.323-29.735-6.532-7.278.179-10.17 3.46-11.692 5.547-5.368 6.711-2.684 15.718.18 25.322.566 2.296 1.73 5.756 2.296 8.62-7.874-3.46-24.158-14.973-58.308-45.842l-3.638-3.25c-8.829-7.874-18.79-11.513-28.006-9.962-5.935.775-14.197 4.026-20.52 14.584-6.144 9.962-59.65 170.718-75.755 219.63-1.73 5.37 1.163 11.126 6.323 12.855 1.163.388 2.297.567 3.25.567 4.206 0 8.262-2.684 9.605-7.098 4.026-12.08 8.44-25.5 13.242-39.34 31.644 14.376 65.615 21.475 99.555 21.475 33.941 0 67.136-6.92 98.601-20.908 59.471-26.275 105.312-74.234 128.725-135.047 23.591-60.604 21.861-126.786-4.414-186.465Zm-14.585 179.159C387 379.488 345.186 423.42 290.517 447.578c-58.516 26.097-125.264 25.5-183.572-1.342 23.98-71.37 50.643-149.631 54.281-156.73 1.91-3.072 3.848-4.593 6.144-4.98 3.251-.567 7.278 1.342 11.513 4.98l3.638 3.251c49.868 45.066 70.387 57.353 83.63 50.643 13.63-6.92 8.619-23.413 5.547-34.329-.388-.954-.776-2.296-1.163-3.638 4.98 1.163 11.303 3.072 17.268 4.593 25.143 7.098 38.564 10.558 46.05 2.505 1.521-1.73 4.98-6.71 2.117-14.376-8.052-21.682 4.802-32.986 25.322-47.75 12.079-8.619 24.546-17.447 22.07-31.256-2.505-12.467-14.196-16.702-24.754-20.132-15.33-5.368-31.257-10.945-35.88-38.175-.954-5.369-4.026-9.783-8.44-12.288-5.577-3.072-12.676-2.685-19.953-.776 18.61-18.61 38.951-41.814 33.195-64.272-2.296-9.604-10.35-12.855-16.702-15.54-5.935-2.296-12.467-4.98-18.998-12.854-6.323-7.486-7.874-14.584-8.053-18.998 53.148 21.295 96.692 62.543 120.671 116.824 24.159 54.669 25.5 115.273 4.027 170.927Z"/></svg>
