<svg viewBox="0 0 411.17 169.87" xmlns="http://www.w3.org/2000/svg"><path d="m286.77 0v169.87h124.39v-169.87z"/><path d="m0 169.87h124.39v-169.87h-124.39z"/><path d="m143.39 169.87h124.39v-169.87h-124.39z"/><g fill="#fff"><path d="m41.2 146.7h-14.93l29.49-73.74h12.87l29.5 73.74h-14.92l-6.44-17.25h-29.14zm21-54.88-9.74 25.39h19.48z"/><path d="m238.31 72.96 7.42 73.74h-13.95l-4.83-48.71-17.16 47.19h-8.4l-17.16-47.19-4.83 48.71h-13.94l7.42-73.74h14.84l17.87 46.83 17.88-46.83s14.84 0 14.84 0z"/><path d="m355.94 72.96v73.74h-13.94v-73.74z"/></g></svg>