<svg fill="none" viewBox="0 0 122 36" xmlns="http://www.w3.org/2000/svg" xmlns:xlink="http://www.w3.org/1999/xlink"><linearGradient id="a"><stop offset="0" stop-color="#dd2665"/><stop offset=".999" stop-color="#dd2665" stop-opacity="0"/></linearGradient><linearGradient id="b" gradientUnits="userSpaceOnUse" x1="11.214" x2="11.214" xlink:href="#a" y1="20.39" y2="31.142"/><linearGradient id="c" gradientUnits="userSpaceOnUse" x1="20.186" x2="20.186" xlink:href="#a" y1="20.39" y2="31.142"/><clipPath id="d"><path d="m0 0h122v36h-122z"/></clipPath><g clip-path="url(#d)"><path d="m43.976 9.683v7.162h8.254v3.254h-8.254v8.925h-3.607v-22.677h12.677v3.334zm28.657 2.641v16.692h-2.81l-.34-2.03a8.527 8.527 0 0 1 -2.822 1.837 8.634 8.634 0 0 1 -3.326.609c-5.05 0-8.827-3.758-8.827-8.762 0-5.016 3.777-8.744 8.827-8.744a8.64 8.64 0 0 1 3.36.618 8.53 8.53 0 0 1 2.841 1.867l.407-2.088h2.69zm-3.493 8.346c0-3.146-2.335-5.477-5.531-5.477-1.475 0-2.89.578-3.933 1.605a5.435 5.435 0 0 0 -1.63 3.872c0 1.453.587 2.846 1.63 3.873a5.608 5.608 0 0 0 3.933 1.604c3.196 0 5.531-2.33 5.531-5.477zm25.72.01c0 5.002-3.679 8.752-8.814 8.752a8.592 8.592 0 0 1 -5.985-2.301l-.449 1.895h-2.635v-22.677h3.484v7.516a8.66 8.66 0 0 1 5.585-1.939c5.135 0 8.814 3.727 8.814 8.753zm-3.557 0c0-3.147-2.335-5.478-5.53-5.478a5.62 5.62 0 0 0 -3.095.91 5.492 5.492 0 0 0 -2.06 2.45c-.424.998-.539 2.1-.328 3.162a5.445 5.445 0 0 0 1.514 2.81 5.584 5.584 0 0 0 2.844 1.505 5.639 5.639 0 0 0 3.215-.305 5.541 5.541 0 0 0 2.5-2.013c.612-.9.94-1.959.94-3.042zm10.132-14.331h-3.486v22.676h3.486zm20.44 14.371c-.004.376-.028.752-.072 1.126h-13.761c.434 2.705 2.413 4.368 5.189 4.368 2.027 0 3.666-.922 4.561-2.444h3.669c-1.349 3.524-4.445 5.662-8.231 5.662-4.956 0-8.71-3.767-8.71-8.752 0-4.995 3.745-8.753 8.71-8.753 5.19 0 8.644 3.934 8.644 8.792h.001zm-13.746-1.662h10.251c-.624-2.535-2.566-4.033-5.149-4.033-2.621 0-4.53 1.557-5.102 4.033z" fill="#000"/><path d="m8.97 20.39v8.765a11.243 11.243 0 0 0 4.486 1.987v-10.752h-4.485z" fill="url(#b)"/><path d="m17.943 20.39v10.752a11.246 11.246 0 0 0 4.486-1.987v-8.765z" fill="url(#c)"/><path d="m0 .002v20.32l.002.071c0 .24.006.48.018.716.008.16.023.317.036.475.009.1.013.201.024.302.02.195.047.388.074.582.009.06.014.12.023.18.034.221.075.44.118.656.006.032.01.064.017.095.049.24.105.477.165.712l.005.023a15.412 15.412 0 0 0 3.471 6.44 15.736 15.736 0 0 0 6.079 4.163l.01.004a15.926 15.926 0 0 0 11.311 0l.02-.008a15.75 15.75 0 0 0 5.818-3.885 15.44 15.44 0 0 0 3.52-5.992l.003-.013c.073-.234.14-.47.202-.708l.016-.066c.056-.222.108-.445.155-.671l.022-.121c.04-.209.08-.418.113-.63.01-.066.016-.134.025-.2.027-.188.053-.374.073-.563.01-.107.015-.213.024-.322.012-.151.027-.302.037-.454.011-.238.017-.477.018-.717l.002-.071v-20.32zm26.913 8.718v11.604c0 2.05-.579 4.061-1.674 5.805a11.15 11.15 0 0 1 -4.524 4.071 11.364 11.364 0 0 1 -11.745-1.045 11.069 11.069 0 0 1 -3.303-3.893 10.886 10.886 0 0 1 -1.183-4.938v-13.59a2.258 2.258 0 0 1 .497-1.462 2.322 2.322 0 0 1 1.328-.817 2.28 2.28 0 0 1 1.849.47c.254.207.458.467.599.761.14.294.213.615.213.94v13.763h4.486v-13.655a2.259 2.259 0 0 1 .496-1.462 2.322 2.322 0 0 1 1.328-.817 2.279 2.279 0 0 1 1.85.47c.253.207.458.467.598.76.14.295.214.616.214.94v13.766h4.485v-13.763c0-.586.236-1.148.657-1.562a2.26 2.26 0 0 1 1.586-.647 2.26 2.26 0 0 1 1.586.647c.42.414.656.976.656 1.562v2.092z" fill="#dd2665"/></g></svg>