<svg viewBox="0 0 391.77 212.03" xmlns="http://www.w3.org/2000/svg"><g fill="none"><path d="m0 0h34.45v34.45h-34.45z"/><path d="m0 177.58h34.45v34.45h-34.45z"/><path d="m357.31 0h34.45v34.45h-34.45z"/><path d="m357.31 177.58h34.45v34.45h-34.45z"/></g><path d="m350.09 154.14v-10.77h-5.14v10.77z" fill="#f00"/><path d="m182.01 146.17c0-1.45 1.2-2.65 2.65-2.65s2.65 1.21 2.65 2.65-1.2 2.65-2.65 2.65c-.67 0-1.4-.29-1.88-.77s-.77-1.16-.77-1.88z"/><path d="m162.26 122.44 50.47-87.98h58.58v87.98h-35.2v-58.58l-34.96 58.58z" fill="#fc0"/><path d="m143.5 34.46-50.48 87.98h-58.57v-87.98h35.19v58.57l34.96-58.57z" fill="#fc0"/><path d="m157.39 34.46h41.68l-51.17 87.98h-41.68z" fill="#fc0"/><path d="m322.27 122.29s-.53-19.64-.53-21.08c0-1.43.71-1.64 1.84-1.13l17.05 3.79s-2.06-6.86-2.37-7.89 0-2.05.92-3.08c.92-1.02 18.13-15.92 18.13-15.92s-3.75-2.87-4.67-3.59-.94-1.87-.47-2.87c.76-1.64 4.28-9.04 4.28-9.04s-7.95 2-9.71 2.43c-1.08.27-2.2.04-2.73-1.01s-2.62-5.28-2.62-5.28l.02.02s-4.81 4.5-8.79 8.15c-1.44 1.33-2.59 0-2.28-1.33.3-1.33 4.28-19.1 4.28-19.1s-5.83 1.55-6.97 1.8-2.03-.47-2.51-1.47c-.78-1.64-5.81-11.25-5.81-11.25s-5.01 9.61-5.79 11.25c-.47 1-1.36 1.73-2.5 1.47-1.14-.25-6.97-1.8-6.97-1.8s4.02 17.77 4.32 19.1c.31 1.33-.84 2.67-2.28 1.33-4-3.65-8.81-8.15-8.81-8.15l.02-.02s-2.08 4.23-2.61 5.28c-.52 1.04-1.65 1.27-2.73 1.01-1.76-.43-9.72-2.43-9.72-2.43s3.53 7.4 4.3 9.04c.47 1.01.47 2.15-.46 2.87-.92.71-4.66 3.59-4.66 3.59s17.23 14.89 18.16 15.92c.92 1.03 1.24 2.05.93 3.08-.3 1.02-2.34 7.89-2.34 7.89l17.04-3.79c1.13-.51 1.84-.31 1.85 1.13 0 1.44-.49 21.08-.49 21.08h5.67z" fill="#f00"/><path d="m82.34 176.88c-1.41-.44-2.63-1.44-2.63-4.5v-24.05c0-3.07 1.22-4.06 2.63-4.5.91-.29 1.04-.7 0-.7h-9.57c-1.03 0-.91.41 0 .7 1.49.46 2.26 1.29 2.26 4.6v23.85c0 3.31-.77 4.14-2.26 4.6-.91.28-1.03.7 0 .7h9.57c1.04 0 .91-.41 0-.7z" fill-rule="evenodd"/><path d="m70.3 143.1c1.39.06.16.64.16.64-.83.28-1.61.75-1.61.75-1.84.87-3.61 5.72-3.61 5.72-3.96 9.02-11.99 26.59-12.35 27.08-.36.5-.57.72-1 .72-.72 0-1.23-.19-1.81-1.68-2.74-7.7-8.73-22.5-9.98-25.34-1.88-4.08-1.66-5.85-5.48-7-.37-.11-1.63-.61-.19-.87.1-.02 5.75.03 8.88.03h5.76c1.11.27-.9.89-.9.89-2.66.65-3.6 2.2-3.6 3.91 0 1.11.34 1.97 1.68 5.34 2.41 5.96 4.86 11.98 6.97 17.89 0 0 2.36-5.29 3.32-7.31l5.57-12.6c.58-1.35 1.25-3.08 1.25-4.38 0-1.41-1.26-2.84-2.19-2.97 0 0-1.95-.48-.43-.79 0 0 3.89.05 4.13.05 1.54 0 3.99-.1 5.48-.05"/><path d="m105.62 162.64c-1.63.1-3.31.19-4.95.19-.29 0-3.41 0-4.95-.19l5.1-12.71zm-20.57 14.23c-1.33.62-.31.74-.31.74s8.27.02 9.43 0c1.16-.03.5-.65.5-.65-1.93-.4-2.69-2.24-2.69-3.19 0-.82.67-2.64 1.06-3.65.58-1.58 1.2-3.17 1.83-4.81 2.16-.1 3.8-.14 5.67-.14 1.97 0 3.94.1 5.91.14.72 2.02 1.97 5.19 2.69 7.26.14.48.29.96.29 1.49 0 .47-.1.81-.31 1.08 0 0-.32 1.09-1.96 1.54 0 0-1.4.51-.78.88l.89.1c2.45-.05 4.22-.03 6.67-.03 1.23 0 2.46-.02 3.68.02l1.39-.03c1.3-.25-.48-.79-.48-.79-2.38-.57-3.24-1.85-3.58-2.47-.38-.67-.53-1.1-1.59-3.89l-10.04-26.32c-.29-.82-.34-1.01-.96-1.01-.82 0-.82.05-1.2 1.01l-9.13 22.71c-2.37 5.73-3.31 7.39-4.47 8.42-1.57 1.4-2.49 1.6-2.49 1.6z"/><path d="m178.69 175.31c-.29.46-.83 1.12-1.9 1.12-1.27 0-2.09-.99-2.09-2.82v-10.94c0-2.41.62-6.81-7.62-6.81-4.19 0-7.89 1.41-7.89 3.77 0 1.4 1.09 2.15 1.98 2.15 3.77 0 1.17-4.91 5.33-4.91 3.31 0 3.79 3.25 3.79 4.6 0 2.39-.13 3.24-1.62 4.08-2.99 1.67-10.44.5-10.44 6.86 0 4.82 5.06 5.41 7.06 5.41 2.21 0 3.57-.84 5.11-2.04 1.75 1.57 2.55 2.09 5 2.09 2.23 0 3.45-.85 4.08-2.01.34-.63-.46-1.07-.78-.56zm-8.43-3.18c0 3.1-2.2 4.52-3.96 4.52-1.56 0-3.54-1.08-3.54-3.46 0-3.87 3.82-5.25 6.42-6.58.14-.07.47-.22.67-.34.34-.2.42-.06.42.59v5.27z"/><path d="m190.11 176.89c-1.41-.44-2.71-1.51-2.71-4.57v-10.84h-.01v-3.59c0-1.23.12-1.67-1.09-1.51-.89.12-6.53.39-7.31.5-.9.13-.39.56.39.56 2.37 0 3.23 2.35 3.42 5.04v9.81c0 3.31-.77 4.14-2.26 4.6-.91.28-1.03.7 0 .7h9.57c1.04 0 .9-.42 0-.7z"/><path d="m202.12 176.87c-1.41-.44-2.73-1.54-2.73-4.61v-9.39h.01c0-5.17-.02-9.3.02-12.59h-.01v-5.45c0-1.23.12-1.67-1.09-1.5-.89.11-6.53.39-7.31.5-.9.13-.4.56.39.56 2.76 0 3.47 3.16 3.47 6.35h.01c0 1.34-.05 3.03-.05 4.17v6.52h-.02v10.83c0 3.31-.77 4.14-2.26 4.61-.91.28-1.03.7 0 .7h9.57c1.04 0 .91-.42 0-.7z"/><path d="m158.86 176.95c-1.41-.44-3.44-.61-6.51-4.6h-.03c-.42-.5-.88-1.07-1.42-1.73-.72-.86-5.84-7.64-7-9.08 3.65-1 6-2.09 7.73-4.69.29-.44 1.11-1.78 1.11-3.96 0-4.29-2.84-6.7-4.57-7.81-2.16-1.35-4.8-2-7.97-2 0 0-4.73-.04-5.47-.01-.75.02-6.57.33-7.35.44-.9.13-.39.72.39.72 2.6 0 3.28 3.1 3.35 6.1v.38 13.33h.02c0 2.93-.32 7.1-.32 8 0 3.31-.77 4.4-2.26 4.87-.91.28-1.03.7 0 .7h9.89c1.04 0 .9-.42 0-.7-1.41-.44-2.7-1.77-2.7-4.84v-7.83h.03c0-.77.01-1.5.01-2.12 3.17-.05 3.31.19 5.66 3.12 1.54 1.92 8.4 11.1 9.36 12.14.19.24.29.28.53.28.76 0 1.53-.03 2.29-.04l5.22.03c1.04 0 .9-.41 0-.7zm-19.89-16.39c-1.05 0-2.11-.05-3.17-.19v-15.38c1.25-.1 2.07-.14 3.12-.14 2.35 0 4.85.29 6.53 1.98 1.39 1.45 2.21 3.81 2.21 5.88 0 4.44-2.69 7.86-8.69 7.86z"/><path d="m306.38 175.18c-.29.45-.83 1.12-1.9 1.12-1.27 0-2.09-1-2.09-2.82v-10.94c0-2.41.61-6.81-7.62-6.81-4.19 0-7.9 1.4-7.9 3.77 0 1.39 1.08 2.15 1.98 2.15 3.77 0 1.17-4.91 5.33-4.91 3.31 0 3.8 3.24 3.8 4.6 0 2.39-.13 3.24-1.62 4.08-2.99 1.67-10.44.5-10.44 6.86 0 4.82 5.06 5.41 7.06 5.41 2.21 0 3.57-.83 5.11-2.04 1.75 1.57 2.55 2.09 4.99 2.09 2.23 0 3.46-.85 4.08-2.01.33-.63-.46-1.06-.78-.56zm-8.43-3.18c0 3.09-2.2 4.52-3.96 4.52-1.56 0-3.54-1.08-3.54-3.46 0-3.88 3.82-5.25 6.42-6.59.14-.07.47-.22.67-.34.34-.2.42-.05.42.59v5.27z"/><path d="m266.83 156.15c-.59.1-5.22.78-5.72.84-.84.1-.79.73 0 .73 2.16 0 2.79 2.61 2.79 4.1v10.38c0 3.31-.77 4.14-2.26 4.61-.9.28-1.03.69 0 .69h9.29c1.04 0 .9-.41 0-.69-1.41-.44-2.73-1.54-2.73-4.61v-6.75c0-6.4 2.62-7.9 5.55-7.9 3.39 0 4.05 2.72 4.05 5.66v8.99c0 3.31-.77 4.14-2.26 4.61-.91.28-1.04.69 0 .69h9.57c1.04 0 .9-.41 0-.69-1.41-.44-2.73-1.54-2.73-4.61v-8.99c0-3.71-.62-7.09-6.22-7.09-2.97 0-5.4.65-6.92 1.9-.62.5-.94.77-1.06.06-.25-1.45-.23-2.12-1.34-1.93z"/><path d="m260.38 175.18c-.29.45-.83 1.12-1.89 1.12-1.28 0-2.1-1-2.1-2.82v-10.94c0-2.41.61-6.81-7.62-6.81-4.19 0-7.9 1.4-7.9 3.77 0 1.39 1.09 2.15 1.98 2.15 3.77 0 1.18-4.91 5.33-4.91 3.31 0 3.8 3.24 3.8 4.6 0 2.39-.13 3.24-1.62 4.08-2.99 1.67-10.44.5-10.44 6.86 0 4.82 5.06 5.41 7.06 5.41 2.2 0 3.57-.83 5.11-2.04 1.75 1.57 2.55 2.09 5 2.09 2.23 0 3.45-.85 4.08-2.01.34-.63-.46-1.06-.78-.56zm-8.42-3.18c0 3.09-2.2 4.52-3.96 4.52-1.57 0-3.55-1.08-3.55-3.46 0-3.88 3.82-5.25 6.42-6.59.14-.07.47-.22.67-.34.34-.2.42-.05.42.59v5.27z"/><path d="m330.44 176.27c-1.65-.14-2.82-1.89-2.82-4.83v-26.84c0-1.23.12-1.67-1.09-1.51-.89.11-6.53.39-7.31.5-.9.13-.4.56.39.56 2.75 0 3.54 2.17 3.54 5.36v7.34c0 .47-.11.92-.64.53s-2.54-1.7-4.6-1.7c-7.35 0-11.44 4.95-11.44 10.77 0 7.68 4.71 11.28 11.3 11.28 2 0 4.17-1.05 4.91-1.65.28-.22.58-.28.7.42.16.99.04 1.37 1.29 1.2 1.2-.17 5.11-.75 5.69-.75.72 0 .64-.62.09-.67zm-12.19.34c-5.94 0-6.92-7.24-6.92-9.85 0-7.3 4.05-9.91 6.59-9.91 2.17 0 4.24 1.53 4.91 4.46.3 1.33.44 4.33.44 7.43 0 2.25-.49 7.87-5.02 7.87z"/><path d="m340.41 153.34s-.05-2.01-.05-2.15c0-.15.07-.17.19-.12l1.74.39s-.21-.7-.24-.8c-.03-.11 0-.21.1-.32.09-.11 1.85-1.62 1.85-1.62s-.38-.29-.48-.37c-.1-.07-.1-.19-.05-.3.08-.17.44-.92.44-.92s-.81.2-.99.25c-.11.03-.23 0-.28-.1-.05-.11-.26-.54-.26-.54s-.49.46-.9.83c-.14.14-.26 0-.23-.13.03-.14.44-1.96.44-1.96s-.6.16-.71.19c-.11.02-.21-.05-.25-.15-.08-.17-.59-1.15-.59-1.15s-.51.98-.59 1.15c-.05.1-.14.17-.26.15-.11-.03-.71-.19-.71-.19s.41 1.82.44 1.96c.03.13-.09.27-.23.13-.41-.37-.9-.83-.9-.83s-.21.43-.27.54c-.05.11-.16.13-.28.1-.18-.04-.99-.25-.99-.25s.36.75.44.92c.05.1.05.22-.05.3-.09.07-.48.37-.48.37s1.76 1.52 1.86 1.62.12.21.1.32c-.03.1-.24.8-.24.8l1.74-.39c.11-.05.19-.03.19.12s-.05 2.15-.05 2.15h.58z" fill="#f00"/><path d="m335.18 154.14v-10.77h-5.13v10.77z" fill="#f00"/><path d="m236.69 143.57c-.34.85-.34 1.03-1.14 1.03-1.28 0-3.55-1.79-7.98-1.79-10.31 0-17.33 8.39-17.33 18.36 0 8.89 6.69 17.07 16.35 17.07 7.13 0 11.56-4.11 13.04-10.41.22-1.32-1.02-1.68-1.31-.39-1.46 6.13-5.18 9.06-10.14 9.06-7.5 0-11.48-5.85-11.48-14.8 0-12.92 6.23-17.55 10.87-17.55 6.47 0 7.83 5.25 9.55 9.52.2.71.36 1.43 1.03 1.35.48-.06.44-.08.44-1.1 0-1.84-.62-8.09-.62-9.6s-1.06-1.33-1.29-.75z"/><path d="m352.31 175.74c.34-.63-.46-1.06-.78-.56-.29.45-.83 1.12-1.9 1.12-1.27 0-2.09-1-2.09-2.82v-10.94c0-2.41.61-6.81-7.62-6.81-4.18 0-7.9 1.4-7.9 3.77 0 1.39 1.09 2.15 1.98 2.15 3.77 0 1.17-4.91 5.33-4.91 3.31 0 3.79 3.24 3.79 4.6 0 2.39-.13 3.24-1.62 4.08-2.98 1.67-10.43.5-10.43 6.86 0 4.82 5.06 5.41 7.06 5.41 2.21 0 3.57-.83 5.11-2.04 1.75 1.57 2.55 2.09 5 2.09 2.23 0 3.45-.85 4.07-2.01zm-9.21-3.74c0 3.09-2.2 4.52-3.96 4.52-1.56 0-3.54-1.08-3.54-3.46 0-3.88 3.82-5.25 6.42-6.59.14-.07.48-.22.67-.34.35-.2.42-.05.42.59v5.27z"/></svg>